<?xml version="1.0" encoding="UTF-8" standalone="no"?>
<!-- Created with Inkscape (http://www.inkscape.org/) -->

<svg
   xmlns:dc="http://purl.org/dc/elements/1.1/"
   xmlns:cc="http://creativecommons.org/ns#"
   xmlns:rdf="http://www.w3.org/1999/02/22-rdf-syntax-ns#"
   xmlns:svg="http://www.w3.org/2000/svg"
   xmlns="http://www.w3.org/2000/svg"
   xmlns:sodipodi="http://sodipodi.sourceforge.net/DTD/sodipodi-0.dtd"
   xmlns:inkscape="http://www.inkscape.org/namespaces/inkscape"
   width="744.09448819"
   height="1052.3622047"
   id="svg19220"
   version="1.1"
   inkscape:version="0.48.3.1 r9886"
   sodipodi:docname="distinctblinkssamegraph.svg">
  <sodipodi:namedview
     id="base"
     pagecolor="#ffffff"
     bordercolor="#666666"
     borderopacity="1.0"
     inkscape:pageopacity="0.0"
     inkscape:pageshadow="2"
     inkscape:zoom="5.2530035"
     inkscape:cx="205.93317"
     inkscape:cy="892.39272"
     inkscape:document-units="px"
     inkscape:current-layer="layer1"
     showgrid="false"
     inkscape:window-width="1855"
     inkscape:window-height="1056"
     inkscape:window-x="65"
     inkscape:window-y="24"
     inkscape:window-maximized="1"
     showguides="true"
     inkscape:guide-bbox="true"
     inkscape:snap-global="true"
     inkscape:snap-bbox="true"
     inkscape:snap-nodes="true"
     inkscape:object-paths="true"
     inkscape:object-nodes="true"
     inkscape:snap-smooth-nodes="true"
     inkscape:snap-midpoints="true"
     inkscape:snap-object-midpoints="true"
     inkscape:snap-center="true" />
  <defs
     id="defs19222" />
  <metadata
     id="metadata19225">
    <rdf:RDF>
      <cc:Work
         rdf:about="">
        <dc:format>image/svg+xml</dc:format>
        <dc:type
           rdf:resource="http://purl.org/dc/dcmitype/StillImage" />
        <dc:title />
      </cc:Work>
    </rdf:RDF>
  </metadata>
  <g
     inkscape:label="Layer 1"
     inkscape:groupmode="layer"
     id="layer1">
    <path
       d="m 159.37824,163.66699 a 20.729939,20.729939 0 1 1 -41.45988,0 20.729939,20.729939 0 1 1 41.45988,0 z"
       sodipodi:ry="20.729939"
       sodipodi:rx="20.729939"
       sodipodi:cy="163.66699"
       sodipodi:cx="138.6483"
       id="path18579"
       style="fill:none;stroke:#000000;stroke-width:4;stroke-miterlimit:2.61310005;stroke-dasharray:none;stroke-dashoffset:0"
       sodipodi:type="arc"
       transform="translate(46.935692,-10)" />
    <path
       inkscape:connector-curvature="0"
       id="path18581"
       d="m 185.58399,153.66699 21.5376,-0.53844"
       style="fill:none;stroke:#000000;stroke-width:4;stroke-linecap:butt;stroke-linejoin:miter;stroke-miterlimit:4;stroke-opacity:1;stroke-dasharray:none"
       sodipodi:nodetypes="cc" />
    <path
       style="fill:none;stroke:#808080;stroke-width:4;stroke-linecap:butt;stroke-linejoin:miter;stroke-miterlimit:4;stroke-opacity:1;stroke-dasharray:none"
       d="m 206.31393,153.66699 18.15488,0.26922"
       id="path18583"
       inkscape:connector-curvature="0"
       sodipodi:nodetypes="cc" />
    <path
       transform="translate(137.66283,-11.61532)"
       d="m 72.689397,164.74387 a 3.4998598,3.4998598 0 1 1 -6.99972,0 3.4998598,3.4998598 0 1 1 6.99972,0 z"
       sodipodi:ry="3.4998598"
       sodipodi:rx="3.4998598"
       sodipodi:cy="164.74387"
       sodipodi:cx="69.189537"
       id="path18585"
       style="fill:#ffffff;stroke:#000000;stroke-width:0.69999999;stroke-miterlimit:2.61310005;stroke-dasharray:none;stroke-dashoffset:0"
       sodipodi:type="arc" />
    <path
       transform="translate(116.39445,-11.076874)"
       d="m 72.689397,164.74387 a 3.4998598,3.4998598 0 1 1 -6.99972,0 3.4998598,3.4998598 0 1 1 6.99972,0 z"
       sodipodi:ry="3.4998598"
       sodipodi:rx="3.4998598"
       sodipodi:cy="164.74387"
       sodipodi:cx="69.189537"
       id="path18589"
       style="fill:#ffffff;stroke:#000000;stroke-width:0.69999999;stroke-miterlimit:2.61310005;stroke-dasharray:none;stroke-dashoffset:0"
       sodipodi:type="arc" />
    <path
       sodipodi:type="arc"
       style="fill:#ffffff;stroke:#000000;stroke-width:0.69999999;stroke-miterlimit:2.61310005;stroke-dasharray:none;stroke-dashoffset:0"
       id="path18603"
       sodipodi:cx="69.189537"
       sodipodi:cy="164.74387"
       sodipodi:rx="3.4998598"
       sodipodi:ry="3.4998598"
       d="m 72.689397,164.74387 a 3.4998598,3.4998598 0 1 1 -6.99972,0 3.4998598,3.4998598 0 1 1 6.99972,0 z"
       transform="translate(155.27927,-10.807656)" />
    <path
       transform="translate(119.06376,-10)"
       sodipodi:type="arc"
       style="fill:none;stroke:#000000;stroke-width:4;stroke-miterlimit:2.61310005;stroke-dasharray:none;stroke-dashoffset:0"
       id="path18605"
       sodipodi:cx="138.6483"
       sodipodi:cy="163.66699"
       sodipodi:rx="20.729939"
       sodipodi:ry="20.729939"
       d="m 159.37824,163.66699 a 20.729939,20.729939 0 1 1 -41.45988,0 20.729939,20.729939 0 1 1 41.45988,0 z" />
    <path
       sodipodi:nodetypes="cc"
       style="fill:none;stroke:#808080;stroke-width:4;stroke-linecap:butt;stroke-linejoin:miter;stroke-miterlimit:4;stroke-opacity:1;stroke-dasharray:none"
       d="m 257.71206,153.66699 21.5376,-0.53844"
       id="path18607"
       inkscape:connector-curvature="0" />
    <path
       sodipodi:nodetypes="cc"
       inkscape:connector-curvature="0"
       id="path18609"
       d="m 278.442,153.66699 18.15488,0.26922"
       style="fill:#000000;stroke:#000000;stroke-width:4;stroke-linecap:butt;stroke-linejoin:miter;stroke-miterlimit:4;stroke-opacity:1;stroke-dasharray:none" />
    <path
       sodipodi:type="arc"
       style="fill:#ffffff;stroke:#000000;stroke-width:0.69999999;stroke-miterlimit:2.61310005;stroke-dasharray:none;stroke-dashoffset:0"
       id="path18611"
       sodipodi:cx="69.189537"
       sodipodi:cy="164.74387"
       sodipodi:rx="3.4998598"
       sodipodi:ry="3.4998598"
       d="m 72.689397,164.74387 a 3.4998598,3.4998598 0 1 1 -6.99972,0 3.4998598,3.4998598 0 1 1 6.99972,0 z"
       transform="translate(209.7909,-11.61532)" />
    <path
       sodipodi:type="arc"
       style="fill:#ffffff;stroke:#000000;stroke-width:0.69999999;stroke-miterlimit:2.61310005;stroke-dasharray:none;stroke-dashoffset:0"
       id="path18613"
       sodipodi:cx="69.189537"
       sodipodi:cy="164.74387"
       sodipodi:rx="3.4998598"
       sodipodi:ry="3.4998598"
       d="m 72.689397,164.74387 a 3.4998598,3.4998598 0 1 1 -6.99972,0 3.4998598,3.4998598 0 1 1 6.99972,0 z"
       transform="translate(188.52252,-11.076874)" />
    <path
       transform="translate(227.40734,-10.807656)"
       d="m 72.689397,164.74387 a 3.4998598,3.4998598 0 1 1 -6.99972,0 3.4998598,3.4998598 0 1 1 6.99972,0 z"
       sodipodi:ry="3.4998598"
       sodipodi:rx="3.4998598"
       sodipodi:cy="164.74387"
       sodipodi:cx="69.189537"
       id="path18615"
       style="fill:#ffffff;stroke:#000000;stroke-width:0.69999999;stroke-miterlimit:2.61310005;stroke-dasharray:none;stroke-dashoffset:0"
       sodipodi:type="arc" />
    <path
       inkscape:connector-curvature="0"
       id="path18715"
       d="m 125.99496,145.32117 21.80682,7.80738"
       style="fill:none;stroke:#000000;stroke-width:4;stroke-linecap:butt;stroke-linejoin:miter;stroke-miterlimit:4;stroke-opacity:1;stroke-dasharray:none" />
    <path
       d="m 159.37824,163.66699 a 20.729939,20.729939 0 1 1 -41.45988,0 20.729939,20.729939 0 1 1 41.45988,0 z"
       sodipodi:ry="20.729939"
       sodipodi:rx="20.729939"
       sodipodi:cy="163.66699"
       sodipodi:cx="138.6483"
       id="path18761"
       style="fill:none;stroke:#000000;stroke-width:4;stroke-miterlimit:2.61310005;stroke-dasharray:none;stroke-dashoffset:0"
       sodipodi:type="arc"
       transform="translate(-12.38412,-10)" />
    <path
       style="fill:none;stroke:#808080;stroke-width:4;stroke-linecap:butt;stroke-linejoin:miter;stroke-miterlimit:4;stroke-opacity:1;stroke-dasharray:none"
       d="m 125.99496,160.93593 21.80682,-7.80738"
       id="path18765"
       inkscape:connector-curvature="0" />
    <path
       sodipodi:type="arc"
       style="fill:#ffffff;stroke:#000000;stroke-width:0.69999999;stroke-miterlimit:2.61310005;stroke-dasharray:none;stroke-dashoffset:0"
       id="path18779"
       sodipodi:cx="69.189537"
       sodipodi:cy="164.74387"
       sodipodi:rx="3.4998598"
       sodipodi:ry="3.4998598"
       d="m 72.689397,164.74387 a 3.4998598,3.4998598 0 1 1 -6.99972,0 3.4998598,3.4998598 0 1 1 6.99972,0 z"
       transform="translate(78.343017,-11.61532)" />
    <path
       transform="translate(56.805423,-3.807936)"
       d="m 72.689397,164.74387 a 3.4998598,3.4998598 0 1 1 -6.99972,0 3.4998598,3.4998598 0 1 1 6.99972,0 z"
       sodipodi:ry="3.4998598"
       sodipodi:rx="3.4998598"
       sodipodi:cy="164.74387"
       sodipodi:cx="69.189537"
       id="path18781"
       style="fill:#ffffff;stroke:#000000;stroke-width:0.69999999;stroke-miterlimit:2.61310005;stroke-dasharray:none;stroke-dashoffset:0"
       sodipodi:type="arc" />
    <path
       sodipodi:type="arc"
       style="fill:#ffffff;stroke:#000000;stroke-width:0.69999999;stroke-miterlimit:2.61310005;stroke-dasharray:none;stroke-dashoffset:0"
       id="path18783"
       sodipodi:cx="69.189537"
       sodipodi:cy="164.74387"
       sodipodi:rx="3.4998598"
       sodipodi:ry="3.4998598"
       d="m 72.689397,164.74387 a 3.4998598,3.4998598 0 1 1 -6.99972,0 3.4998598,3.4998598 0 1 1 6.99972,0 z"
       transform="translate(56.805423,-19.422696)" />
    <path
       style="fill:none;stroke:#000000;stroke-width:4;stroke-linecap:butt;stroke-linejoin:miter;stroke-miterlimit:4;stroke-opacity:1;stroke-dasharray:none"
       d="m 369.91667,145.32117 -21.80682,7.80738"
       id="path18895"
       inkscape:connector-curvature="0" />
    <path
       sodipodi:type="arc"
       style="fill:none;stroke:#000000;stroke-width:4;stroke-miterlimit:2.61310005;stroke-dasharray:none;stroke-dashoffset:0"
       id="path18897"
       sodipodi:cx="138.6483"
       sodipodi:cy="163.66699"
       sodipodi:rx="20.729939"
       sodipodi:ry="20.729939"
       d="m 159.37824,163.66699 a 20.729939,20.729939 0 1 1 -41.45988,0 20.729939,20.729939 0 1 1 41.45988,0 z"
       transform="translate(190,-10)" />
    <path
       inkscape:connector-curvature="0"
       id="path18899"
       d="m 369.91667,160.93593 -21.80682,-7.80738"
       style="fill:none;stroke:#808080;stroke-width:4;stroke-linecap:butt;stroke-linejoin:miter;stroke-miterlimit:4;stroke-opacity:1;stroke-dasharray:none" />
    <path
       transform="matrix(-1,0,0,1,417.56861,-11.61532)"
       d="m 72.689397,164.74387 a 3.4998598,3.4998598 0 1 1 -6.99972,0 3.4998598,3.4998598 0 1 1 6.99972,0 z"
       sodipodi:ry="3.4998598"
       sodipodi:rx="3.4998598"
       sodipodi:cy="164.74387"
       sodipodi:cx="69.189537"
       id="path18901"
       style="fill:#ffffff;stroke:#000000;stroke-width:0.69999999;stroke-miterlimit:2.61310005;stroke-dasharray:none;stroke-dashoffset:0"
       sodipodi:type="arc" />
    <path
       sodipodi:type="arc"
       style="fill:#ffffff;stroke:#000000;stroke-width:0.69999999;stroke-miterlimit:2.61310005;stroke-dasharray:none;stroke-dashoffset:0"
       id="path18903"
       sodipodi:cx="69.189537"
       sodipodi:cy="164.74387"
       sodipodi:rx="3.4998598"
       sodipodi:ry="3.4998598"
       d="m 72.689397,164.74387 a 3.4998598,3.4998598 0 1 1 -6.99972,0 3.4998598,3.4998598 0 1 1 6.99972,0 z"
       transform="matrix(-1,0,0,1,439.10621,-3.80794)" />
    <path
       transform="matrix(-1,0,0,1,439.10621,-19.4227)"
       d="m 72.689397,164.74387 a 3.4998598,3.4998598 0 1 1 -6.99972,0 3.4998598,3.4998598 0 1 1 6.99972,0 z"
       sodipodi:ry="3.4998598"
       sodipodi:rx="3.4998598"
       sodipodi:cy="164.74387"
       sodipodi:cx="69.189537"
       id="path18905"
       style="fill:#ffffff;stroke:#000000;stroke-width:0.69999999;stroke-miterlimit:2.61310005;stroke-dasharray:none;stroke-dashoffset:0"
       sodipodi:type="arc" />
  </g>
</svg>
