<?xml version="1.0" encoding="UTF-8" standalone="no"?>
<!-- Created with Inkscape (http://www.inkscape.org/) -->

<svg
   xmlns:ns0="http://www.iki.fi/pav/software/textext/"
   xmlns:dc="http://purl.org/dc/elements/1.1/"
   xmlns:cc="http://creativecommons.org/ns#"
   xmlns:rdf="http://www.w3.org/1999/02/22-rdf-syntax-ns#"
   xmlns:svg="http://www.w3.org/2000/svg"
   xmlns="http://www.w3.org/2000/svg"
   xmlns:xlink="http://www.w3.org/1999/xlink"
   xmlns:sodipodi="http://sodipodi.sourceforge.net/DTD/sodipodi-0.dtd"
   xmlns:inkscape="http://www.inkscape.org/namespaces/inkscape"
   width="744.09448819"
   height="1052.3622047"
   id="svg3778"
   version="1.1"
   inkscape:version="0.48.3.1 r9886"
   sodipodi:docname="GettingImmersedBandSameWidth.svg">
  <sodipodi:namedview
     id="base"
     pagecolor="#ffffff"
     bordercolor="#666666"
     borderopacity="1.0"
     inkscape:pageopacity="0.0"
     inkscape:pageshadow="2"
     inkscape:zoom="2.4838155"
     inkscape:cx="361.14932"
     inkscape:cy="806.77305"
     inkscape:document-units="px"
     inkscape:current-layer="layer1"
     showgrid="false"
     inkscape:window-width="1855"
     inkscape:window-height="1056"
     inkscape:window-x="65"
     inkscape:window-y="24"
     inkscape:window-maximized="1"
     inkscape:snap-global="false"
     inkscape:snap-bbox="true"
     inkscape:snap-nodes="true"
     inkscape:object-paths="true"
     inkscape:snap-midpoints="true"
     inkscape:snap-object-midpoints="false"
     inkscape:snap-center="false"
     inkscape:snap-smooth-nodes="true"
     inkscape:object-nodes="true" />
  <defs
     id="defs3780" />
  <metadata
     id="metadata3783">
    <rdf:RDF>
      <cc:Work
         rdf:about="">
        <dc:format>image/svg+xml</dc:format>
        <dc:type
           rdf:resource="http://purl.org/dc/dcmitype/StillImage" />
        <dc:title />
      </cc:Work>
    </rdf:RDF>
  </metadata>
  <g
     inkscape:label="Layer 1"
     inkscape:groupmode="layer"
     id="layer1">
    <g
       id="g3911">
      <path
         id="path88"
         style="fill:none;stroke:#000000;stroke-width:2.2460146;stroke-linecap:round;stroke-linejoin:miter;stroke-miterlimit:10;stroke-opacity:1;stroke-dasharray:none"
         d="m 327.70491,206.35432 12.7349,19.08972 m -12.21691,6.26638 1.30128,1.66767 m 0,0 1.31392,-2.22356 m 0,0 1.30128,2.22356 m 0,0 2.16039,-2.77945 m 0,0 0.87173,2.22356 m 0,0 1.73084,-2.22356 m 0.44218,0.55589 0.42955,1.66767 m 0.42955,0 2.17302,-1.66767 m -12.67173,0.65696 0,-6.36745 m 12.7349,6.36745 0,-6.36745 m -9.24796,-5.23041 -3.48694,5.23041 m 10.49871,-55.81627 2.17302,-1.66766 m -3.03212,0 0.42955,1.66766 m -2.60257,0 1.73084,-2.22355 m -2.60257,0 0.87173,2.22355 m -3.03212,0.55589 2.16039,-2.77944 m -3.46167,0.55589 1.30128,2.22355 m -2.6152,0 1.31392,-2.22355 m -2.6152,0.55588 1.30128,1.66767 m -1.81927,-2.03405 0,6.36745 m 12.7349,-6.36745 0,6.36745 m -12.7349,31.83726 0,-12.7349 m 12.7349,12.7349 0,-12.7349 m -12.7349,-19.10236 12.7349,19.10236 m 0,-19.10236 -3.71435,5.55889 m -6.10214,9.15953 -2.91841,4.38394 m 12.7349,12.7349 -3.3985,5.09144"
         inkscape:connector-curvature="0" />
      <g
         id="g4691"
         ns0:preamble=""
         ns0:text="$\\simeq$"
         transform="matrix(1.1046229,0,0,1.1046229,57.636131,52.399686)">
        <defs
           id="defs4693">
          <g
             id="g4695">
            <symbol
               id="textext-a9276b5c-0"
               overflow="visible"
               style="overflow:visible">
              <path
                 id="path4698"
                 d=""
                 style="stroke:none"
                 inkscape:connector-curvature="0" />
            </symbol>
            <symbol
               id="textext-a9276b5c-1"
               overflow="visible"
               style="overflow:visible">
              <path
                 id="path4701"
                 d="m 7.203125,-4.3125 c 0,-0.21875 -0.078125,-0.296875 -0.140625,-0.296875 -0.046875,0 -0.140625,0.03125 -0.140625,0.265625 C 6.875,-3.515625 6.1875,-3.046875 5.53125,-3.046875 c -0.59375,0 -1.078125,-0.359375 -1.59375,-0.75 C 3.40625,-4.21875 2.875,-4.625 2.21875,-4.625 c -0.984375,0 -1.671875,0.875 -1.671875,1.8125 0,0.296875 0.125,0.3125 0.140625,0.3125 0.109375,0 0.140625,-0.203125 0.140625,-0.234375 C 0.875,-3.703125 1.671875,-4.0625 2.21875,-4.0625 c 0.59375,0 1.078125,0.34375 1.59375,0.75 0.53125,0.40625 1.046875,0.8125 1.71875,0.8125 0.984375,0 1.671875,-0.875 1.671875,-1.8125 z M 0.90625,-0.75 c -0.15625,0 -0.359375,0 -0.359375,0.1875 0,0.203125 0.1875,0.203125 0.34375,0.203125 l 5.953125,0 c 0.171875,0 0.359375,0 0.359375,-0.203125 0,-0.1875 -0.1875,-0.1875 -0.359375,-0.1875 z"
                 style="stroke:none"
                 inkscape:connector-curvature="0" />
            </symbol>
          </g>
        </defs>
        <g
           id="textext-a9276b5c-2">
          <g
             id="g4704"
             style="fill:#000000;fill-opacity:1">
            <use
               id="use4706"
               y="134.765"
               x="223.43201"
               xlink:href="#textext-a9276b5c-1"
               width="744.09448"
               height="1052.3622" />
          </g>
        </g>
      </g>
      <g
         transform="matrix(1.1046229,0,0,1.1046229,108.3104,52.399686)"
         ns0:text="$\\simeq$"
         ns0:preamble=""
         id="g4730">
        <defs
           id="defs4732">
          <g
             id="g4734">
            <symbol
               style="overflow:visible"
               overflow="visible"
               id="symbol4736">
              <path
                 inkscape:connector-curvature="0"
                 style="stroke:none"
                 d=""
                 id="path4738" />
            </symbol>
            <symbol
               style="overflow:visible"
               overflow="visible"
               id="symbol4740">
              <path
                 inkscape:connector-curvature="0"
                 style="stroke:none"
                 d="m 7.203125,-4.3125 c 0,-0.21875 -0.078125,-0.296875 -0.140625,-0.296875 -0.046875,0 -0.140625,0.03125 -0.140625,0.265625 C 6.875,-3.515625 6.1875,-3.046875 5.53125,-3.046875 c -0.59375,0 -1.078125,-0.359375 -1.59375,-0.75 C 3.40625,-4.21875 2.875,-4.625 2.21875,-4.625 c -0.984375,0 -1.671875,0.875 -1.671875,1.8125 0,0.296875 0.125,0.3125 0.140625,0.3125 0.109375,0 0.140625,-0.203125 0.140625,-0.234375 C 0.875,-3.703125 1.671875,-4.0625 2.21875,-4.0625 c 0.59375,0 1.078125,0.34375 1.59375,0.75 0.53125,0.40625 1.046875,0.8125 1.71875,0.8125 0.984375,0 1.671875,-0.875 1.671875,-1.8125 z M 0.90625,-0.75 c -0.15625,0 -0.359375,0 -0.359375,0.1875 0,0.203125 0.1875,0.203125 0.34375,0.203125 l 5.953125,0 c 0.171875,0 0.359375,0 0.359375,-0.203125 0,-0.1875 -0.1875,-0.1875 -0.359375,-0.1875 z"
                 id="path4742" />
            </symbol>
          </g>
        </defs>
        <g
           id="g4744">
          <g
             style="fill:#000000;fill-opacity:1"
             id="g4746">
            <use
               height="1052.3622"
               width="744.09448"
               xlink:href="#textext-a9276b5c-1"
               x="223.43201"
               y="134.765"
               id="use4748" />
          </g>
        </g>
      </g>
      <path
         sodipodi:nodetypes="cc"
         inkscape:connector-curvature="0"
         id="path3009"
         d="m 419.1098,193.90594 c -45.08753,-34.34332 -57.18343,44.76781 0.83272,7.91087"
         style="fill:none;stroke:#000000;stroke-width:2.24300003;stroke-linecap:butt;stroke-linejoin:miter;stroke-miterlimit:4;stroke-opacity:1;stroke-dasharray:none" />
      <path
         sodipodi:nodetypes="cc"
         inkscape:connector-curvature="0"
         id="path3009-4"
         d="m 415.23646,197.08303 c -33.27622,-23.60326 -43.46545,24.95881 -4.24688,3.07519"
         style="fill:none;stroke:#000000;stroke-width:2.24300003;stroke-linecap:butt;stroke-linejoin:miter;stroke-miterlimit:4;stroke-opacity:1;stroke-dasharray:none" />
      <path
         sodipodi:nodetypes="cc"
         inkscape:connector-curvature="0"
         id="path3797"
         d="m 436.93008,168.75769 c -6.10912,12.93165 -14.31039,24.24687 -26.39733,31.64349"
         style="fill:none;stroke:#000000;stroke-width:2.24300003;stroke-linecap:butt;stroke-linejoin:miter;stroke-miterlimit:4;stroke-opacity:1;stroke-dasharray:none" />
      <path
         sodipodi:nodetypes="cc"
         inkscape:connector-curvature="0"
         id="path3799"
         d="m 419.19307,201.40045 c 9.81111,7.07023 14.90645,16.14108 17.40392,26.31407"
         style="fill:none;stroke:#000000;stroke-width:2.24300003;stroke-linecap:butt;stroke-linejoin:miter;stroke-miterlimit:4;stroke-opacity:1;stroke-dasharray:none" />
      <path
         style="fill:none;stroke:#000000;stroke-width:2.24300003;stroke-linecap:butt;stroke-linejoin:miter;stroke-miterlimit:4;stroke-opacity:1;stroke-dasharray:none"
         d="m 424.02579,197.90008 c 9.81111,7.07023 15.82245,19.30543 18.31992,29.47842"
         id="path3803"
         inkscape:connector-curvature="0"
         sodipodi:nodetypes="cc" />
      <path
         style="fill:none;stroke:#000000;stroke-width:2.24300003;stroke-linecap:butt;stroke-linejoin:miter;stroke-miterlimit:4;stroke-opacity:1;stroke-dasharray:none"
         d="m 443.26463,169.09078 c -5.57751,12.21817 -7.27432,19.48672 -24.14897,33.30894"
         id="path3805"
         inkscape:connector-curvature="0"
         sodipodi:nodetypes="cc" />
      <path
         sodipodi:nodetypes="cc"
         inkscape:connector-curvature="0"
         id="path3009-5"
         d="m 251.7436,202.66527 c 45.08753,34.34332 57.18343,-44.76781 -0.83272,-7.91087"
         style="fill:none;stroke:#000000;stroke-width:2.24300003;stroke-linecap:butt;stroke-linejoin:miter;stroke-miterlimit:4;stroke-opacity:1;stroke-dasharray:none" />
      <path
         sodipodi:nodetypes="cc"
         inkscape:connector-curvature="0"
         id="path3009-4-79"
         d="m 255.61694,199.48818 c 33.27622,23.60326 43.46545,-24.95881 4.24688,-3.07519"
         style="fill:none;stroke:#000000;stroke-width:2.24300003;stroke-linecap:butt;stroke-linejoin:miter;stroke-miterlimit:4;stroke-opacity:1;stroke-dasharray:none" />
      <path
         sodipodi:nodetypes="cc"
         inkscape:connector-curvature="0"
         id="path3797-6"
         d="m 233.92332,227.81352 c 6.10912,-12.93165 14.31039,-24.24687 26.39733,-31.64349"
         style="fill:none;stroke:#000000;stroke-width:2.24300003;stroke-linecap:butt;stroke-linejoin:miter;stroke-miterlimit:4;stroke-opacity:1;stroke-dasharray:none" />
      <path
         sodipodi:nodetypes="cc"
         inkscape:connector-curvature="0"
         id="path3799-7"
         d="m 251.66033,195.17076 c -9.81111,-7.07023 -14.90645,-16.14108 -17.40392,-26.31407"
         style="fill:none;stroke:#000000;stroke-width:2.24300003;stroke-linecap:butt;stroke-linejoin:miter;stroke-miterlimit:4;stroke-opacity:1;stroke-dasharray:none" />
      <path
         style="fill:none;stroke:#000000;stroke-width:2.24300003;stroke-linecap:butt;stroke-linejoin:miter;stroke-miterlimit:4;stroke-opacity:1;stroke-dasharray:none"
         d="M 246.82761,198.67113 C 237.0165,191.6009 231.00516,179.3657 228.50769,169.19271"
         id="path3803-8"
         inkscape:connector-curvature="0"
         sodipodi:nodetypes="cc" />
      <path
         style="fill:none;stroke:#000000;stroke-width:2.24300003;stroke-linecap:butt;stroke-linejoin:miter;stroke-miterlimit:4;stroke-opacity:1;stroke-dasharray:none"
         d="m 227.58877,227.48043 c 5.57751,-12.21817 7.27432,-19.48672 24.14897,-33.30894"
         id="path3805-8"
         inkscape:connector-curvature="0"
         sodipodi:nodetypes="cc" />
      <path
         sodipodi:nodetypes="cccccc"
         inkscape:connector-curvature="0"
         id="path3903"
         d="m 228.74669,170.13164 c 0.57485,-0.90342 -0.55662,-2.27037 0.81779,-2.97237 l 1.92058,2.94751 1.41087,-3.06597 c 0.99648,0.5343 1.50123,1.18681 1.36048,1.81588 l 0.28538,1.11483"
         style="fill:none;stroke:#000000;stroke-width:1.5;stroke-linecap:butt;stroke-linejoin:miter;stroke-miterlimit:4;stroke-opacity:1;stroke-dasharray:none" />
      <path
         style="fill:none;stroke:#000000;stroke-width:1.5;stroke-linecap:butt;stroke-linejoin:miter;stroke-miterlimit:4;stroke-opacity:1;stroke-dasharray:none"
         d="m 228.27091,227.09598 c 0.57485,0.90342 -0.55662,2.27037 0.81779,2.97237 l 1.92058,-2.94751 1.41087,3.06597 c 0.99648,-0.5343 1.50123,-1.18681 1.36048,-1.81588 l 0.28538,-1.11483"
         id="path3905"
         inkscape:connector-curvature="0"
         sodipodi:nodetypes="cccccc" />
      <path
         style="fill:none;stroke:#000000;stroke-width:1.5;stroke-linecap:butt;stroke-linejoin:miter;stroke-miterlimit:4;stroke-opacity:1;stroke-dasharray:none"
         d="m 436.93008,168.75769 c 0.57485,-0.90342 -0.55662,-2.27037 0.81779,-2.97237 l 1.92058,2.94751 1.98024,-3.27948 c 0.99648,0.5343 1.5724,1.40032 1.43165,2.02939 l -0.0292,2.10624"
         id="path3907"
         inkscape:connector-curvature="0"
         sodipodi:nodetypes="cccccc" />
      <path
         sodipodi:nodetypes="cccccc"
         inkscape:connector-curvature="0"
         id="path3909"
         d="m 436.27091,227.09598 c 0.57485,0.90342 -0.55662,2.27037 0.81779,2.97237 l 1.92058,-2.94751 1.41087,3.06597 c 0.99648,-0.5343 1.50123,-1.18681 1.36048,-1.81588 l 0.28538,-1.11483"
         style="fill:none;stroke:#000000;stroke-width:1.5;stroke-linecap:butt;stroke-linejoin:miter;stroke-miterlimit:4;stroke-opacity:1;stroke-dasharray:none" />
    </g>
  </g>
</svg>
