<?xml version="1.0" encoding="UTF-8" standalone="no"?>
<!-- Created with Inkscape (http://www.inkscape.org/) -->

<svg
   xmlns:dc="http://purl.org/dc/elements/1.1/"
   xmlns:cc="http://creativecommons.org/ns#"
   xmlns:rdf="http://www.w3.org/1999/02/22-rdf-syntax-ns#"
   xmlns:svg="http://www.w3.org/2000/svg"
   xmlns="http://www.w3.org/2000/svg"
   xmlns:sodipodi="http://sodipodi.sourceforge.net/DTD/sodipodi-0.dtd"
   xmlns:inkscape="http://www.inkscape.org/namespaces/inkscape"
   width="744.09448819"
   height="1052.3622047"
   id="svg3016"
   version="1.1"
   inkscape:version="0.48.3.1 r9886"
   sodipodi:docname="linkblink.svg">
  <sodipodi:namedview
     id="base"
     pagecolor="#ffffff"
     bordercolor="#666666"
     borderopacity="1.0"
     inkscape:pageopacity="0.0"
     inkscape:pageshadow="2"
     inkscape:zoom="1.1889097"
     inkscape:cx="443.67882"
     inkscape:cy="617.38464"
     inkscape:document-units="px"
     inkscape:current-layer="layer1"
     showgrid="false"
     inkscape:window-width="1855"
     inkscape:window-height="1056"
     inkscape:window-x="65"
     inkscape:window-y="24"
     inkscape:window-maximized="1"
     inkscape:snap-global="false"
     inkscape:snap-bbox="true"
     inkscape:snap-nodes="true"
     inkscape:object-paths="true"
     inkscape:snap-midpoints="true"
     inkscape:snap-object-midpoints="true"
     inkscape:snap-center="true" />
  <defs
     id="defs3018" />
  <metadata
     id="metadata3021">
    <rdf:RDF>
      <cc:Work
         rdf:about="">
        <dc:format>image/svg+xml</dc:format>
        <dc:type
           rdf:resource="http://purl.org/dc/dcmitype/StillImage" />
        <dc:title />
      </cc:Work>
    </rdf:RDF>
  </metadata>
  <g
     id="layer1"
     inkscape:groupmode="layer"
     inkscape:label="Layer 1">
    <path
       style="fill:#b3b3b3;stroke:#b3b3b3;stroke-width:1px;stroke-linecap:butt;stroke-linejoin:miter;stroke-opacity:1"
       d="m 163.1654,246.06793 -11.49607,6.07648 -10.09977,6.68833 -0.74572,3.99662 4.65796,4.17302 15.24619,6.65047 -11.95581,5.16087 -8.32808,3.99183 -0.77928,3.94613 7.46432,5.74338 17.99944,9.17491 -7.91581,4.21428 -4.10875,0.89164 -27.24812,-0.29492 -20.84874,-10.52018 -8.9901,-17.29355 1.343565,-16.24666 9.554975,-13.22442 16.69752,-7.39558 22.08563,-0.0798 z"
       id="path4585"
       inkscape:connector-curvature="0"
       sodipodi:nodetypes="ccccccccccccccccccccc" />
    <path
       style="fill:#b3b3b3;stroke:#b3b3b3;stroke-width:1px;stroke-linecap:butt;stroke-linejoin:miter;stroke-opacity:1"
       d="m 167.06249,273.87721 14.27845,-3.65925 7.0151,-5.32744 2.35971,-3.09003 -0.80739,-2.15222 -1.92465,-3.62296 -7.0185,-4.12666 -14.35245,-5.16415 3.08553,-5.02566 10.88433,-5.19469 10.40775,0.90809 16.24072,11.52477 12.53662,8.67108 13.79022,3.101 -15.35817,5.23183 -18.50859,7.803 -32.62868,0.12329"
       id="path4574"
       inkscape:connector-curvature="0"
       sodipodi:nodetypes="ccccccccccccccccc" />
    <path
       style="fill:#b3b3b3;stroke:#b3b3b3;stroke-width:1px;stroke-linecap:butt;stroke-linejoin:miter;stroke-opacity:1"
       d="m 241.05518,260.60686 -6.09945,9.55359 0.8902,10.50591 3.10451,6.92383 -15.75272,3.19349 -11.25487,7.928 -7.44696,6.09803 -11.74432,6.85834 -13.05055,-1.84486 -12.61842,-7.23237 20.51604,-7.79607 7.3745,-7.5183 -4.08099,-4.98967 -23.82966,-8.40957 -24.07329,-7.98948 c 16.03804,7.77397 32.02959,12.66504 47.67664,-3.80253 0.48878,-3.01744 -3.22162,-6.31483 -8.65591,-9.72715 l -19.12987,-6.04074 c 9.79806,3.40824 21.62644,6.38142 26.27083,10.89402 l 1.51495,4.87387 -4.61961,5.61063 -18.98374,6.18138"
       id="path4572"
       inkscape:connector-curvature="0"
       sodipodi:nodetypes="cccccccccccccccccccccc" />
    <path
       style="fill:#b3b3b3;stroke:#b3b3b3;stroke-width:1px;stroke-linecap:butt;stroke-linejoin:miter;stroke-opacity:1"
       d="m 238.95044,287.59019 18.61576,0.58005 16.12984,4.85941 13.52487,9.03678 2.89207,5.98306 -1.73694,5.59934 -6.26577,3.52233 -9.60693,-0.83715 -10.94125,-4.82568 -10.04384,-7.38863 -8.80091,-9.92269 z"
       id="path4570"
       inkscape:connector-curvature="0" />
    <path
       style="fill:#b3b3b3;stroke:#b3b3b3;stroke-width:1px;stroke-linecap:butt;stroke-linejoin:miter;stroke-opacity:1"
       d="m 241.05518,260.60686 17.04735,-18.43314 17.4861,-11.35958 10.30166,-0.28971 3.49732,6.39033 -2.49069,6.23075 -9.60656,7.7551 -10.80183,4.93317 -13.7218,3.71732 z"
       id="path4568"
       inkscape:connector-curvature="0" />
    <path
       inkscape:connector-curvature="0"
       id="path3812"
       d="m 303.37288,220.17528 79.00552,-0.10741 -39.54765,47.3021 -40.37718,-48.29427"
       style="fill:#b3b3b3;stroke:#ffffff;stroke-width:0.9188925px;stroke-linecap:butt;stroke-linejoin:miter;stroke-opacity:1" />
    <path
       style="fill:#b3b3b3;stroke:#ffffff;stroke-width:0.9188925px;stroke-linecap:butt;stroke-linejoin:miter;stroke-opacity:1"
       d="m 303.37289,315.8906 79.00551,0.10741 -39.54765,-47.30211 -40.37718,48.29428"
       id="path3814"
       inkscape:connector-curvature="0" />
    <path
       inkscape:connector-curvature="0"
       id="path3019"
       d="m 302.28254,218.87113 81.09642,96.99768"
       style="fill:none;stroke:#000000;stroke-width:2.75667763;stroke-linecap:butt;stroke-linejoin:miter;stroke-miterlimit:4;stroke-opacity:1;stroke-dasharray:none" />
    <path
       sodipodi:nodetypes="cc"
       style="fill:none;stroke:#000000;stroke-width:2.75667763;stroke-linecap:butt;stroke-linejoin:miter;stroke-miterlimit:4;stroke-opacity:1;stroke-dasharray:none"
       d="m 383.37896,218.87113 -33.36923,39.91222"
       id="path3808"
       inkscape:connector-curvature="0" />
    <path
       sodipodi:nodetypes="cc"
       style="fill:none;stroke:#000000;stroke-width:2.75667763;stroke-linecap:butt;stroke-linejoin:miter;stroke-miterlimit:4;stroke-opacity:1;stroke-dasharray:none"
       d="m 335.8404,277.0569 -33.17637,39.68155"
       id="path3808-8"
       inkscape:connector-curvature="0" />
    <path
       sodipodi:nodetypes="cc"
       inkscape:connector-curvature="0"
       id="path3834"
       d="m 342.87565,220.12158 0,95.82272"
       style="fill:none;stroke:#666666;stroke-width:5.40657711;stroke-linecap:butt;stroke-linejoin:miter;stroke-miterlimit:4;stroke-opacity:1;stroke-dasharray:none" />
    <path
       style="fill:#b3b3b3;stroke:#ffffff;stroke-width:0.9188925px;stroke-linecap:butt;stroke-linejoin:miter;stroke-opacity:1"
       d="m 480.67624,220.17528 -79.00551,-0.10741 39.54765,47.30211 40.37718,-48.29428"
       id="path3836"
       inkscape:connector-curvature="0" />
    <path
       inkscape:connector-curvature="0"
       id="path3838"
       d="m 480.67624,315.8906 -79.00551,0.10741 39.54765,-47.30211 40.37718,48.29428"
       style="fill:#b3b3b3;stroke:#ffffff;stroke-width:0.9188925px;stroke-linecap:butt;stroke-linejoin:miter;stroke-opacity:1" />
    <path
       style="fill:none;stroke:#000000;stroke-width:2.75667763;stroke-linecap:butt;stroke-linejoin:miter;stroke-miterlimit:4;stroke-opacity:1;stroke-dasharray:none"
       d="m 481.7666,218.87113 -81.09643,96.99768"
       id="path3840"
       inkscape:connector-curvature="0" />
    <path
       inkscape:connector-curvature="0"
       id="path3842"
       d="m 400.67017,218.87113 33.36925,39.91222"
       style="fill:none;stroke:#000000;stroke-width:2.75667763;stroke-linecap:butt;stroke-linejoin:miter;stroke-miterlimit:4;stroke-opacity:1;stroke-dasharray:none"
       sodipodi:nodetypes="cc" />
    <path
       inkscape:connector-curvature="0"
       id="path3844"
       d="m 448.20873,277.0569 33.17637,39.68155"
       style="fill:none;stroke:#000000;stroke-width:2.75667763;stroke-linecap:butt;stroke-linejoin:miter;stroke-miterlimit:4;stroke-opacity:1;stroke-dasharray:none"
       sodipodi:nodetypes="cc" />
    <path
       sodipodi:nodetypes="cc"
       style="fill:none;stroke:#000000;stroke-width:5.40657711;stroke-linecap:butt;stroke-linejoin:miter;stroke-miterlimit:4;stroke-opacity:1;stroke-dasharray:none"
       d="m 441.17349,220.12158 0,95.82272"
       id="path3846"
       inkscape:connector-curvature="0" />
    <path
       inkscape:connector-curvature="0"
       id="path3019-9"
       d="m 483.94611,265.19257 92.42702,-0.34927"
       style="fill:none;stroke:#000000;stroke-width:7;stroke-linecap:butt;stroke-linejoin:miter;stroke-miterlimit:4;stroke-opacity:1;stroke-dasharray:none"
       sodipodi:nodetypes="cc" />
    <path
       inkscape:connector-curvature="0"
       id="path3641"
       d="m 484.62527,267.57794 c -0.42165,-39.22081 91.08745,-39.93829 91.93341,-0.16845"
       style="fill:none;stroke:#000000;stroke-width:7;stroke-linecap:butt;stroke-linejoin:miter;stroke-miterlimit:4;stroke-opacity:1;stroke-dasharray:none"
       sodipodi:nodetypes="cc" />
    <path
       sodipodi:nodetypes="cc"
       style="fill:none;stroke:#000000;stroke-width:7;stroke-linecap:butt;stroke-linejoin:miter;stroke-miterlimit:4;stroke-opacity:1;stroke-dasharray:none"
       d="m 484.62527,263.87129 c -0.42165,39.22081 91.08745,39.93829 91.93341,0.16845"
       id="path4411"
       inkscape:connector-curvature="0" />
    <path
       sodipodi:nodetypes="cc"
       style="fill:none;stroke:#808080;stroke-width:7;stroke-linecap:butt;stroke-linejoin:miter;stroke-miterlimit:4;stroke-opacity:1;stroke-dasharray:none"
       d="M 631.41124,237.08203 576.37313,264.8433"
       id="path4413"
       inkscape:connector-curvature="0" />
    <path
       inkscape:connector-curvature="0"
       id="path4415"
       d="M 629.56663,292.61154 574.52852,264.85027"
       style="fill:none;stroke:#808080;stroke-width:7;stroke-linecap:butt;stroke-linejoin:miter;stroke-miterlimit:4;stroke-opacity:1;stroke-dasharray:none"
       sodipodi:nodetypes="cc" />
    <path
       sodipodi:type="arc"
       style="fill:#ffffff;stroke:#000000;stroke-width:0.44146228;stroke-miterlimit:4;stroke-dasharray:none;stroke-dashoffset:0"
       id="path4417"
       sodipodi:cx="70.058815"
       sodipodi:cy="318.21094"
       sodipodi:rx="3.5844047"
       sodipodi:ry="3.5844047"
       d="m 73.64322,318.21094 a 3.5844047,3.5844047 0 1 1 -7.16881,0 3.5844047,3.5844047 0 1 1 7.16881,0 z"
       transform="matrix(1.5856394,0,0,1.5856394,374.0052,-239.40104)" />
    <path
       transform="matrix(1.5856394,0,0,1.5856394,466.0052,-239.40104)"
       d="m 73.64322,318.21094 a 3.5844047,3.5844047 0 1 1 -7.16881,0 3.5844047,3.5844047 0 1 1 7.16881,0 z"
       sodipodi:ry="3.5844047"
       sodipodi:rx="3.5844047"
       sodipodi:cy="318.21094"
       sodipodi:cx="70.058815"
       id="path4419"
       style="fill:#ffffff;stroke:#000000;stroke-width:0.44146228;stroke-miterlimit:4;stroke-dasharray:none;stroke-dashoffset:0"
       sodipodi:type="arc" />
    <path
       sodipodi:type="arc"
       style="fill:#ffffff;stroke:#000000;stroke-width:0.44146228;stroke-miterlimit:4;stroke-dasharray:none;stroke-dashoffset:0"
       id="path4421"
       sodipodi:cx="70.058815"
       sodipodi:cy="318.21094"
       sodipodi:rx="3.5844047"
       sodipodi:ry="3.5844047"
       d="m 73.64322,318.21094 a 3.5844047,3.5844047 0 1 1 -7.16881,0 3.5844047,3.5844047 0 1 1 7.16881,0 z"
       transform="matrix(1.5856394,0,0,1.5856394,519.3623,-267.00108)" />
    <path
       transform="matrix(1.5856394,0,0,1.5856394,518.47861,-211.95626)"
       d="m 73.64322,318.21094 a 3.5844047,3.5844047 0 1 1 -7.16881,0 3.5844047,3.5844047 0 1 1 7.16881,0 z"
       sodipodi:ry="3.5844047"
       sodipodi:rx="3.5844047"
       sodipodi:cy="318.21094"
       sodipodi:cx="70.058815"
       id="path4423"
       style="fill:#ffffff;stroke:#000000;stroke-width:0.44146228;stroke-miterlimit:4;stroke-dasharray:none;stroke-dashoffset:0"
       sodipodi:type="arc" />
    <path
       style="fill:none;stroke:#000000;stroke-width:3;stroke-linecap:butt;stroke-linejoin:miter;stroke-miterlimit:4;stroke-opacity:1;stroke-dasharray:none"
       d="m 167.15996,246.42681 c -36.17699,14.81854 -30.44208,21.35446 0.63847,27.76582"
       id="path4467"
       inkscape:connector-curvature="0"
       sodipodi:nodetypes="cc" />
    <path
       sodipodi:nodetypes="cc"
       inkscape:connector-curvature="0"
       id="path4469"
       d="m 170.54486,273.85729 c -41.23549,8.06473 -33.22538,15.99834 -5.55508,28.12841"
       style="fill:none;stroke:#000000;stroke-width:3;stroke-linecap:butt;stroke-linejoin:miter;stroke-miterlimit:4;stroke-opacity:1;stroke-dasharray:none" />
    <path
       style="fill:none;stroke:#000000;stroke-width:3;stroke-linecap:butt;stroke-linejoin:miter;stroke-miterlimit:4;stroke-opacity:1;stroke-dasharray:none"
       d="m 164.50798,246.78317 c -96.575365,-33.03866 -82.140565,90.27649 5.53612,55.09404"
       id="path4471"
       inkscape:connector-curvature="0"
       sodipodi:nodetypes="cc" />
    <path
       style="fill:none;stroke:#000000;stroke-width:3;stroke-linecap:butt;stroke-linejoin:miter;stroke-miterlimit:4;stroke-opacity:1;stroke-dasharray:none"
       d="m 162.9852,247.26357 c 23.68207,-13.96468 22.19586,-17.58548 48.41153,5.27392 24.21961,21.11889 86.32095,-2.38087 77.05652,-19.14199"
       id="path4475"
       inkscape:connector-curvature="0"
       sodipodi:nodetypes="csc" />
    <path
       sodipodi:nodetypes="csc"
       inkscape:connector-curvature="0"
       id="path4481"
       d="m 164.84324,301.91935 c 24.36547,11.02082 24.35207,16.65553 50.56774,-6.20387 24.21961,-21.11889 83.02333,-0.0147 73.7589,16.74646"
       style="fill:none;stroke:#000000;stroke-width:3;stroke-linecap:butt;stroke-linejoin:miter;stroke-miterlimit:4;stroke-opacity:1;stroke-dasharray:none" />
    <path
       style="fill:none;stroke:#000000;stroke-width:3;stroke-linecap:butt;stroke-linejoin:miter;stroke-miterlimit:4;stroke-opacity:1;stroke-dasharray:none"
       d="m 169.91457,273.89392 c 29.94747,8.29058 34.54191,14.81571 0.12953,27.98329"
       id="path4483"
       inkscape:connector-curvature="0"
       sodipodi:nodetypes="cc" />
    <path
       sodipodi:nodetypes="cc"
       inkscape:connector-curvature="0"
       id="path4485"
       d="m 164.8309,247.29618 c 33.57571,6.55197 33.73154,19.69065 5.2132,26.58103"
       style="fill:none;stroke:#000000;stroke-width:3;stroke-linecap:butt;stroke-linejoin:miter;stroke-miterlimit:4;stroke-opacity:1;stroke-dasharray:none" />
    <path
       style="fill:none;stroke:#000000;stroke-width:3;stroke-linecap:butt;stroke-linejoin:miter;stroke-miterlimit:4;stroke-opacity:1;stroke-dasharray:none"
       d="m 288.50527,233.49108 c -7.33987,-14.2967 -37.27328,12.86835 -47.71021,26.33087 -9.57913,14.32284 -7.43888,15.06466 -1.84461,27.76824"
       id="path4487"
       inkscape:connector-curvature="0"
       sodipodi:nodetypes="ccc" />
    <path
       sodipodi:nodetypes="cc"
       inkscape:connector-curvature="0"
       id="path4489"
       d="m 289.37188,312.0877 c -7.33987,14.2967 -40.4388,-2.48598 -50.42143,-24.49751"
       style="fill:none;stroke:#000000;stroke-width:3;stroke-linecap:butt;stroke-linejoin:miter;stroke-miterlimit:4;stroke-opacity:1;stroke-dasharray:none" />
    <path
       style="fill:none;stroke:#ffffff;stroke-width:1px;stroke-linecap:butt;stroke-linejoin:miter;stroke-opacity:1"
       d="m 236.1704,267.40942 c 2.74709,-4.94197 5.64879,-8.81577 9.76955,-13.60511"
       id="path4491"
       inkscape:connector-curvature="0"
       sodipodi:nodetypes="cc" />
    <path
       style="fill:none;stroke:#ffffff;stroke-width:1px;stroke-linecap:butt;stroke-linejoin:miter;stroke-opacity:1"
       d="m 228.48332,288.85073 c 6.43625,-1.26091 12.74553,-2.42026 17.0498,-1.97559"
       id="path4493"
       inkscape:connector-curvature="0"
       sodipodi:nodetypes="cc" />
    <path
       style="fill:none;stroke:#ffffff;stroke-width:1px;stroke-linecap:butt;stroke-linejoin:miter;stroke-opacity:1"
       d="m 151.77169,243.16429 22.21675,6.30605"
       id="path4495"
       inkscape:connector-curvature="0" />
    <path
       inkscape:connector-curvature="0"
       id="path4497"
       d="m 151.77169,243.16429 22.21675,6.30605"
       style="fill:none;stroke:#ffffff;stroke-width:1px;stroke-linecap:butt;stroke-linejoin:miter;stroke-opacity:1" />
    <path
       style="fill:none;stroke:#ffffff;stroke-width:0.89999998;stroke-linecap:butt;stroke-linejoin:miter;stroke-miterlimit:4;stroke-opacity:1;stroke-dasharray:none"
       d="m 151.77169,243.16429 22.21675,6.30605"
       id="path4499"
       inkscape:connector-curvature="0" />
    <path
       inkscape:connector-curvature="0"
       id="path4501"
       d="m 150.81666,269.63146 c 7.68587,1.65356 23.30901,5.45507 30.23796,8.3197"
       style="fill:none;stroke:#ffffff;stroke-width:0.89999998;stroke-linecap:butt;stroke-linejoin:miter;stroke-miterlimit:4;stroke-opacity:1;stroke-dasharray:none"
       sodipodi:nodetypes="cc" />
    <path
       inkscape:connector-curvature="0"
       id="path4503"
       d="m 157.19691,298.02176 c 7.06651,4.31916 12.55772,6.28041 18.98039,9.31187"
       style="fill:none;stroke:#ffffff;stroke-width:0.89999998;stroke-linecap:butt;stroke-linejoin:miter;stroke-miterlimit:4;stroke-opacity:1;stroke-dasharray:none"
       sodipodi:nodetypes="cc" />
    <path
       style="fill:#b3b3b3;stroke:#b3b3b3;stroke-width:1px;stroke-linecap:butt;stroke-linejoin:miter;stroke-opacity:1"
       d="m 361.72804,138.93946 -11.49607,6.07648 -10.09977,6.68833 -0.74572,3.99662 4.65796,4.17302 15.24619,6.65047 -11.95581,5.16087 -8.32808,3.99183 -0.77928,3.94613 7.46432,5.74338 17.99944,9.17491 -18.12183,-2.33544 6.71663,5.14387 -27.86748,2.00257 -20.84874,-10.52018 -8.99011,-17.29355 1.34357,-16.24666 9.55498,-13.22442 16.69752,-7.39558 22.08563,-0.0798 z"
       id="path4585-0"
       inkscape:connector-curvature="0" />
    <path
       style="fill:#b3b3b3;stroke:#b3b3b3;stroke-width:1px;stroke-linecap:butt;stroke-linejoin:miter;stroke-opacity:1"
       d="m 365.91047,166.49936 14.27845,-3.65925 7.0151,-5.32744 2.35971,-3.09003 -0.80739,-2.15222 -1.92465,-3.62296 -7.0185,-4.12666 -14.35245,-5.16415 3.08553,-5.02566 10.88433,-5.19469 10.40775,0.90809 16.24072,11.52477 12.53662,8.67108 13.79022,3.101 -15.35817,5.23183 -18.50859,7.803 -32.62868,0.12329"
       id="path4574-4"
       inkscape:connector-curvature="0"
       sodipodi:nodetypes="ccccccccccccccccc" />
    <path
       style="fill:#b3b3b3;stroke:#b3b3b3;stroke-width:1px;stroke-linecap:butt;stroke-linejoin:miter;stroke-opacity:1"
       d="m 439.90316,153.22901 -6.09945,9.55359 0.8902,10.50591 3.10451,6.92383 -15.75272,3.19349 -11.25487,7.928 -7.44696,6.09803 -11.74432,6.85834 -13.05055,-1.84486 -12.61842,-7.23237 20.51604,-7.79607 7.3745,-7.5183 -4.08099,-4.98967 -23.82966,-8.40957 -24.07329,-7.98948 c 16.03804,7.77397 32.02959,12.66504 47.67664,-3.80253 0.48878,-3.01744 -3.22162,-6.31483 -8.65591,-9.72715 l -19.12987,-6.04074 c 9.79806,3.40824 21.62644,6.38142 26.27083,10.89402 l 1.51495,4.87387 -4.61961,5.61063 -18.98374,6.18138"
       id="path4572-6"
       inkscape:connector-curvature="0"
       sodipodi:nodetypes="cccccccccccccccccccccc" />
    <path
       style="fill:#b3b3b3;stroke:#b3b3b3;stroke-width:1px;stroke-linecap:butt;stroke-linejoin:miter;stroke-opacity:1"
       d="m 437.79842,180.21234 18.61576,0.58005 16.12984,4.85941 13.52487,9.03678 2.89207,5.98306 -1.73694,5.59934 -6.26577,3.52233 -9.60693,-0.83715 -10.94125,-4.82568 -10.04384,-7.38863 -8.80091,-9.92269 z"
       id="path4570-7"
       inkscape:connector-curvature="0" />
    <path
       style="fill:#b3b3b3;stroke:#b3b3b3;stroke-width:1px;stroke-linecap:butt;stroke-linejoin:miter;stroke-opacity:1"
       d="m 439.90316,153.22901 17.04735,-18.43314 17.4861,-11.35958 10.30166,-0.28971 3.49732,6.39033 -2.49069,6.23075 -9.60656,7.7551 -10.80183,4.93317 -13.7218,3.71732 z"
       id="path4568-2"
       inkscape:connector-curvature="0" />
    <path
       inkscape:connector-curvature="0"
       id="path3019-9-2-0"
       d="m 319.69696,166.674 92.42702,-0.34927"
       style="fill:none;stroke:#000000;stroke-width:7;stroke-linecap:butt;stroke-linejoin:miter;stroke-miterlimit:4;stroke-opacity:1;stroke-dasharray:none"
       sodipodi:nodetypes="cc" />
    <path
       inkscape:connector-curvature="0"
       id="path3641-8-9"
       d="m 320.37612,169.05937 c -0.42165,-39.22081 91.08745,-39.93829 91.93341,-0.16845"
       style="fill:none;stroke:#000000;stroke-width:7;stroke-linecap:butt;stroke-linejoin:miter;stroke-miterlimit:4;stroke-opacity:1;stroke-dasharray:none"
       sodipodi:nodetypes="cc" />
    <path
       sodipodi:nodetypes="cc"
       style="fill:none;stroke:#000000;stroke-width:7;stroke-linecap:butt;stroke-linejoin:miter;stroke-miterlimit:4;stroke-opacity:1;stroke-dasharray:none"
       d="m 320.37612,165.35272 c -0.42165,39.22081 91.08745,39.93829 91.93341,0.16845"
       id="path4411-6-9"
       inkscape:connector-curvature="0" />
    <path
       sodipodi:nodetypes="cc"
       style="fill:none;stroke:#808080;stroke-width:7;stroke-linecap:butt;stroke-linejoin:miter;stroke-miterlimit:4;stroke-opacity:1;stroke-dasharray:none"
       d="m 467.16209,138.56346 -55.03811,27.76127"
       id="path4413-3-3"
       inkscape:connector-curvature="0" />
    <path
       inkscape:connector-curvature="0"
       id="path4415-3-9"
       d="M 465.31748,194.09297 410.27937,166.3317"
       style="fill:none;stroke:#808080;stroke-width:7;stroke-linecap:butt;stroke-linejoin:miter;stroke-miterlimit:4;stroke-opacity:1;stroke-dasharray:none"
       sodipodi:nodetypes="cc" />
    <path
       sodipodi:type="arc"
       style="fill:#ffffff;stroke:#000000;stroke-width:0.44146228;stroke-miterlimit:4;stroke-dasharray:none;stroke-dashoffset:0"
       id="path4417-5-3"
       sodipodi:cx="70.058815"
       sodipodi:cy="318.21094"
       sodipodi:rx="3.5844047"
       sodipodi:ry="3.5844047"
       d="m 73.64322,318.21094 a 3.5844047,3.5844047 0 1 1 -7.16881,0 3.5844047,3.5844047 0 1 1 7.16881,0 z"
       transform="matrix(1.5856394,0,0,1.5856394,209.75606,-337.91961)" />
    <path
       transform="matrix(1.5856394,0,0,1.5856394,301.75605,-337.91961)"
       d="m 73.64322,318.21094 a 3.5844047,3.5844047 0 1 1 -7.16881,0 3.5844047,3.5844047 0 1 1 7.16881,0 z"
       sodipodi:ry="3.5844047"
       sodipodi:rx="3.5844047"
       sodipodi:cy="318.21094"
       sodipodi:cx="70.058815"
       id="path4419-3-9"
       style="fill:#ffffff;stroke:#000000;stroke-width:0.44146228;stroke-miterlimit:4;stroke-dasharray:none;stroke-dashoffset:0"
       sodipodi:type="arc" />
    <path
       sodipodi:type="arc"
       style="fill:#ffffff;stroke:#000000;stroke-width:0.44146228;stroke-miterlimit:4;stroke-dasharray:none;stroke-dashoffset:0"
       id="path4421-9-3"
       sodipodi:cx="70.058815"
       sodipodi:cy="318.21094"
       sodipodi:rx="3.5844047"
       sodipodi:ry="3.5844047"
       d="m 73.64322,318.21094 a 3.5844047,3.5844047 0 1 1 -7.16881,0 3.5844047,3.5844047 0 1 1 7.16881,0 z"
       transform="matrix(1.5856394,0,0,1.5856394,355.11315,-365.51965)" />
    <path
       transform="matrix(1.5856394,0,0,1.5856394,354.22946,-310.47483)"
       d="m 73.64322,318.21094 a 3.5844047,3.5844047 0 1 1 -7.16881,0 3.5844047,3.5844047 0 1 1 7.16881,0 z"
       sodipodi:ry="3.5844047"
       sodipodi:rx="3.5844047"
       sodipodi:cy="318.21094"
       sodipodi:cx="70.058815"
       id="path4423-3-8"
       style="fill:#ffffff;stroke:#000000;stroke-width:0.44146228;stroke-miterlimit:4;stroke-dasharray:none;stroke-dashoffset:0"
       sodipodi:type="arc" />
    <path
       style="fill:none;stroke:#000000;stroke-width:3;stroke-linecap:butt;stroke-linejoin:miter;stroke-miterlimit:4;stroke-opacity:1;stroke-dasharray:none"
       d="m 365.40917,139.35718 c -40.38252,12.92605 -29.42276,20.9411 0.5013,27.14218"
       id="path4467-5"
       inkscape:connector-curvature="0"
       sodipodi:nodetypes="cc" />
    <path
       sodipodi:nodetypes="cc"
       inkscape:connector-curvature="0"
       id="path4469-5"
       d="m 365.40917,167.35718 c -41.23549,8.06473 -32.32079,13.48761 0.5013,27.14218"
       style="fill:none;stroke:#000000;stroke-width:3;stroke-linecap:butt;stroke-linejoin:miter;stroke-miterlimit:4;stroke-opacity:1;stroke-dasharray:none" />
    <path
       style="fill:none;stroke:#000000;stroke-width:3;stroke-linecap:butt;stroke-linejoin:miter;stroke-miterlimit:4;stroke-opacity:1;stroke-dasharray:none"
       d="m 363.35596,139.40532 c -96.57537,-33.03866 -87.9864,89.46842 -0.30971,54.28597"
       id="path4471-2"
       inkscape:connector-curvature="0"
       sodipodi:nodetypes="cc" />
    <path
       style="fill:none;stroke:#000000;stroke-width:3;stroke-linecap:butt;stroke-linejoin:miter;stroke-miterlimit:4;stroke-opacity:1;stroke-dasharray:none"
       d="m 359.65297,139.62695 c 23.68207,-13.96469 24.37607,-17.32671 50.59174,5.53269 24.21961,21.11889 86.32095,-2.38087 77.05652,-19.14199"
       id="path4475-6"
       inkscape:connector-curvature="0"
       sodipodi:nodetypes="csc" />
    <path
       sodipodi:nodetypes="csc"
       inkscape:connector-curvature="0"
       id="path4481-9"
       d="m 363.66722,193.87032 c 23.68207,13.96469 24.37607,17.32671 50.59174,-5.53269 24.21961,-21.11889 83.02333,-0.0147 73.7589,16.74646"
       style="fill:none;stroke:#000000;stroke-width:3;stroke-linecap:butt;stroke-linejoin:miter;stroke-miterlimit:4;stroke-opacity:1;stroke-dasharray:none" />
    <path
       style="fill:none;stroke:#000000;stroke-width:3;stroke-linecap:butt;stroke-linejoin:miter;stroke-miterlimit:4;stroke-opacity:1;stroke-dasharray:none"
       d="m 369.39338,167.35718 c 29.94747,8.29058 35.27788,15.18369 -0.5013,27.14218"
       id="path4483-6"
       inkscape:connector-curvature="0"
       sodipodi:nodetypes="cc" />
    <path
       sodipodi:nodetypes="cc"
       inkscape:connector-curvature="0"
       id="path4485-5"
       d="m 363.67888,139.91833 c 33.57571,6.55197 33.73154,19.69065 5.2132,26.58103"
       style="fill:none;stroke:#000000;stroke-width:3;stroke-linecap:butt;stroke-linejoin:miter;stroke-miterlimit:4;stroke-opacity:1;stroke-dasharray:none" />
    <path
       style="fill:none;stroke:#000000;stroke-width:3;stroke-linecap:butt;stroke-linejoin:miter;stroke-miterlimit:4;stroke-opacity:1;stroke-dasharray:none"
       d="m 487.35325,126.11323 c -7.33987,-14.2967 -37.27328,12.86835 -47.71021,26.33087 -9.57913,14.32284 -7.43888,15.06466 -1.84461,27.76824"
       id="path4487-5"
       inkscape:connector-curvature="0"
       sodipodi:nodetypes="ccc" />
    <path
       sodipodi:nodetypes="cc"
       inkscape:connector-curvature="0"
       id="path4489-1"
       d="m 488.21986,204.70985 c -7.33987,14.2967 -40.4388,-2.48598 -50.42143,-24.49751"
       style="fill:none;stroke:#000000;stroke-width:3;stroke-linecap:butt;stroke-linejoin:miter;stroke-miterlimit:4;stroke-opacity:1;stroke-dasharray:none" />
    <path
       style="fill:none;stroke:#ffffff;stroke-width:1px;stroke-linecap:butt;stroke-linejoin:miter;stroke-opacity:1"
       d="m 435.01838,160.03157 c 2.74709,-4.94197 5.64879,-8.81577 9.76955,-13.60511"
       id="path4491-0"
       inkscape:connector-curvature="0"
       sodipodi:nodetypes="cc" />
    <path
       style="fill:none;stroke:#ffffff;stroke-width:1px;stroke-linecap:butt;stroke-linejoin:miter;stroke-opacity:1"
       d="m 427.3313,181.47288 c 6.43625,-1.26091 12.74553,-2.42026 17.0498,-1.97559"
       id="path4493-6"
       inkscape:connector-curvature="0"
       sodipodi:nodetypes="cc" />
    <path
       style="fill:none;stroke:#ffffff;stroke-width:1px;stroke-linecap:butt;stroke-linejoin:miter;stroke-opacity:1"
       d="m 350.61967,135.78644 22.21675,6.30605"
       id="path4495-6"
       inkscape:connector-curvature="0" />
    <path
       inkscape:connector-curvature="0"
       id="path4497-9"
       d="m 350.61967,135.78644 22.21675,6.30605"
       style="fill:none;stroke:#ffffff;stroke-width:1px;stroke-linecap:butt;stroke-linejoin:miter;stroke-opacity:1" />
    <path
       style="fill:none;stroke:#ffffff;stroke-width:0.89999998;stroke-linecap:butt;stroke-linejoin:miter;stroke-miterlimit:4;stroke-opacity:1;stroke-dasharray:none"
       d="m 350.61967,135.78644 22.21675,6.30605"
       id="path4499-2"
       inkscape:connector-curvature="0" />
    <path
       inkscape:connector-curvature="0"
       id="path4501-1"
       d="m 349.66464,162.25361 c 7.68587,1.65356 23.30901,5.45507 30.23796,8.3197"
       style="fill:none;stroke:#ffffff;stroke-width:0.89999998;stroke-linecap:butt;stroke-linejoin:miter;stroke-miterlimit:4;stroke-opacity:1;stroke-dasharray:none"
       sodipodi:nodetypes="cc" />
    <path
       inkscape:connector-curvature="0"
       id="path4503-5"
       d="m 353.68875,189.25733 c 7.06651,4.31916 13.58229,7.53687 20.00495,10.56833"
       style="fill:none;stroke:#ffffff;stroke-width:0.89999998;stroke-linecap:butt;stroke-linejoin:miter;stroke-miterlimit:4;stroke-opacity:1;stroke-dasharray:none"
       sodipodi:nodetypes="cc" />
  </g>
</svg>
