<?xml version="1.0" encoding="UTF-8" standalone="no"?>
<!-- Created with Inkscape (http://www.inkscape.org/) -->

<svg
   xmlns:dc="http://purl.org/dc/elements/1.1/"
   xmlns:cc="http://creativecommons.org/ns#"
   xmlns:rdf="http://www.w3.org/1999/02/22-rdf-syntax-ns#"
   xmlns:svg="http://www.w3.org/2000/svg"
   xmlns="http://www.w3.org/2000/svg"
   xmlns:sodipodi="http://sodipodi.sourceforge.net/DTD/sodipodi-0.dtd"
   xmlns:inkscape="http://www.inkscape.org/namespaces/inkscape"
   width="744.09448819"
   height="1052.3622047"
   id="svg3348"
   version="1.1"
   inkscape:version="0.48.3.1 r9886"
   sodipodi:docname="R3S3.svg">
  <defs
     id="defs3350" />
  <sodipodi:namedview
     id="base"
     pagecolor="#ffffff"
     bordercolor="#666666"
     borderopacity="1.0"
     inkscape:pageopacity="0.0"
     inkscape:pageshadow="2"
     inkscape:zoom="1.979899"
     inkscape:cx="552.70737"
     inkscape:cy="598.13895"
     inkscape:document-units="px"
     inkscape:current-layer="g208"
     showgrid="false"
     inkscape:window-width="1855"
     inkscape:window-height="1056"
     inkscape:window-x="65"
     inkscape:window-y="24"
     inkscape:window-maximized="1" />
  <metadata
     id="metadata3353">
    <rdf:RDF>
      <cc:Work
         rdf:about="">
        <dc:format>image/svg+xml</dc:format>
        <dc:type
           rdf:resource="http://purl.org/dc/dcmitype/StillImage" />
        <dc:title></dc:title>
      </cc:Work>
    </rdf:RDF>
  </metadata>
  <g
     inkscape:label="Layer 1"
     inkscape:groupmode="layer"
     id="layer1">
    <g
       transform="matrix(1.25,0,0,1.25,180.77839,299.91222)"
       id="g14">
      <path
         id="path16"
         style="fill:#b3b3b3;fill-opacity:1;fill-rule:nonzero;stroke:#000000;stroke-width:0.80000001;stroke-linecap:butt;stroke-linejoin:miter;stroke-miterlimit:4;stroke-opacity:1;stroke-dasharray:none"
         d="m 185.113,109.695 c 0,51.008 -41.351,92.356 -92.355,92.356 -51.008,0 -92.356,-41.348 -92.356,-92.356 0,-51.004 41.348,-92.355 92.356,-92.355 51.004,0 92.355,41.351 92.355,92.355 z"
         inkscape:connector-curvature="0" />
    </g>
    <path
       id="path18"
       style="fill:#000000;fill-opacity:1;fill-rule:nonzero;stroke:none"
       d="m 222.06214,508.17835 c -0.33125,1.3825 -0.44375,1.66125 -3.2075,1.66125 -0.61,0 -0.9425,0 -0.9425,0.7175 0,0.39 0.3325,0.39 0.9425,0.39 l 12.6075,0 c 5.58625,0 9.73125,-4.15 9.73125,-7.63125 0,-2.54375 -2.04625,-4.59 -5.47375,-4.98125 3.6525,-0.66375 7.35375,-3.26125 7.35375,-6.635 0,-2.5975 -2.32,-4.86375 -6.52375,-4.86375 l -11.89,0 c -0.66375,0 -0.995,0 -0.995,0.7175 0,0.38625 0.33125,0.38625 0.995,0.38625 0.0538,0 0.71875,0 1.32875,0.0588 0.605,0.1075 0.9375,0.1075 0.9375,0.605 0,0.1125 -0.0538,0.22 -0.1075,0.66375 l -4.75625,18.91125 z m 5.3075,-10.175 2.2125,-8.73625 c 0.3325,-1.215 0.38625,-1.3275 1.88,-1.3275 l 4.59,0 c 3.095,0 3.81375,2.105 3.81375,3.6525 0,3.095 -3.0375,6.41125 -7.3,6.41125 l -5.19625,0 z m -1.5475,11.83625 -0.77625,0 c -0.38625,-0.0538 -0.4975,-0.1125 -0.4975,-0.38625 0,-0.1125 0,-0.16625 0.22375,-0.77625 l 2.4325,-9.84375 6.635,0 c 3.37375,0 4.0925,2.6025 4.0925,4.09125 0,3.48625 -3.155,6.915 -7.35375,6.915 l -4.75625,0 z"
       inkscape:connector-curvature="0" />
    <path
       id="path20"
       style="fill:#000000;fill-opacity:1;fill-rule:nonzero;stroke:none"
       d="m 257.98589,494.11085 0,-0.88375 -2.76375,0 0,-11.005 c 0,-0.49875 0,-0.7175 -0.49875,-0.7175 -0.33125,0 -0.44375,0 -0.66375,0.385 l -8.18375,11.3375 0,0.88375 7.3,0 0,1.9925 c 0,0.88375 0,1.1575 -2.04625,1.1575 l -0.66375,0 0,0.88875 c 1.27,-0.0588 2.8225,-0.1125 3.70625,-0.1125 0.9375,0 2.485,0.0537 3.76,0.1125 l 0,-0.88875 -0.665,0 c -2.045,0 -2.045,-0.27375 -2.045,-1.1575 l 0,-1.9925 2.76375,0 z m -4.64375,-9.89625 0,9.0125 -6.52875,0 6.52875,-9.0125 z"
       inkscape:connector-curvature="0" />
    <path
       id="path22"
       style="fill:#000000;fill-opacity:1;fill-rule:nonzero;stroke:none"
       d="m 302.80464,565.71335 c 0,-0.0588 -0.0588,-0.2 -0.22875,-0.2 -0.0888,0 -0.0888,0.0288 -0.3125,0.2825 l -0.885,1.03 c -0.45875,-0.85875 -1.39625,-1.3125 -2.5925,-1.3125 -2.30875,0 -4.4775,2.10875 -4.4775,4.30625 0,1.45 0.9425,2.305 1.88,2.56375 l 1.93875,0.5125 c 0.68375,0.17125 1.685,0.45375 1.685,1.93875 0,1.625 -1.485,3.335 -3.28125,3.335 -1.1675,0 -3.18875,-0.40125 -3.18875,-2.6525 0,-0.42875 0.1125,-0.88375 0.1125,-0.96625 0.0288,-0.0875 0.0288,-0.1175 0.0288,-0.14625 0,-0.17125 -0.1175,-0.2 -0.2,-0.2 -0.0875,0 -0.14125,0.0287 -0.2,0.0875 -0.0588,0.0588 -1.08375,4.21875 -1.08375,4.2775 0,0.0825 0.0875,0.17125 0.2,0.17125 0.0875,0 0.1125,-0.03 0.34125,-0.28875 l 0.88375,-1.025 c 0.77125,1.055 2.02625,1.31375 3.08125,1.31375 2.475,0 4.61375,-2.4275 4.61375,-4.67875 0,-1.25375 -0.625,-1.87875 -0.88375,-2.13875 -0.42375,-0.395 -0.7125,-0.4825 -2.30875,-0.87875 -0.425,-0.11625 -1.055,-0.3175 -1.22625,-0.34625 -0.4825,-0.17125 -1.1075,-0.68375 -1.1075,-1.65 0,-1.485 1.45,-3.0225 3.1925,-3.0225 1.48,0 2.5925,0.8 2.5925,2.8225 0,0.57125 -0.0575,0.9125 -0.0575,1.025 0,0 0,0.17125 0.2,0.17125 0.2,0 0.22875,-0.0537 0.2825,-0.37125 l 1.00125,-3.96 z"
       inkscape:connector-curvature="0" />
    <g
       transform="matrix(1.25,0,0,1.25,180.77839,299.91222)"
       id="g24">
      <path
         id="path26"
         style="fill:none;stroke:#000000;stroke-width:0.80000001;stroke-linecap:butt;stroke-linejoin:miter;stroke-miterlimit:4;stroke-opacity:1;stroke-dasharray:none"
         d="m 92.758,109.695 92.351,-0.367"
         inkscape:connector-curvature="0" />
    </g>
    <g
       transform="matrix(1.25,0,0,1.25,180.77839,299.91222)"
       id="g28">
      <path
         id="path30"
         style="fill:none;stroke:#000000;stroke-width:0.80000001;stroke-linecap:butt;stroke-linejoin:miter;stroke-miterlimit:4;stroke-opacity:1;stroke-dasharray:none"
         d="m 1.555,109.695 91.203,0"
         inkscape:connector-curvature="0" />
    </g>
    <path
       id="path32"
       style="fill:#000000;fill-opacity:1;fill-rule:nonzero;stroke:none"
       d="m 304.79714,301.82085 c 0.2,-0.7125 0.5125,-1.28375 1.9675,-1.3375 0.0875,0 0.3125,-0.0287 0.3125,-0.37125 0,0 0,-0.2 -0.225,-0.2 -0.6,0 -1.255,0.0587 -1.855,0.0587 -0.59625,0 -1.255,-0.0587 -1.85,-0.0587 -0.1175,0 -0.3175,0 -0.3175,0.37125 0,0.2 0.17,0.2 0.3175,0.2 1.05375,0.03 1.25375,0.39625 1.25375,0.79625 0,0.0587 -0.0575,0.34125 -0.0575,0.37125 l -2.05125,8.095 -4.02375,-9.49125 c -0.14125,-0.3125 -0.14125,-0.3425 -0.56625,-0.3425 l -2.45125,0 c -0.34125,0 -0.5125,0 -0.5125,0.37125 0,0.2 0.17125,0.2 0.5125,0.2 0.0837,0 1.22625,0 1.22625,0.17125 l -2.4225,9.74625 c -0.2,0.74125 -0.5175,1.31375 -1.9675,1.36625 -0.1175,0 -0.3125,0.03 -0.3125,0.37125 0,0.1175 0.0825,0.20125 0.225,0.20125 0.6,0 1.225,-0.0588 1.82625,-0.0588 0.625,0 1.28375,0.0588 1.87875,0.0588 0.0888,0 0.3125,0 0.3125,-0.37125 0,-0.17125 -0.17,-0.20125 -0.37,-0.20125 -1.055,-0.0288 -1.19625,-0.42375 -1.19625,-0.795 0,-0.1125 0.0288,-0.23 0.0875,-0.43 l 2.3925,-9.575 c 0.0875,0.0825 0.0875,0.14125 0.17125,0.3125 l 4.53125,10.7175 c 0.11625,0.3125 0.17,0.3425 0.34125,0.3425 0.2,0 0.2,-0.0588 0.28875,-0.37125 l 2.53375,-10.1475 z"
       inkscape:connector-curvature="0" />
    <path
       id="path34"
       style="fill:#000000;fill-opacity:1;fill-rule:nonzero;stroke:none"
       d="m 399.88464,506.5921 c 0,-0.0588 -0.0587,-0.2 -0.22875,-0.2 -0.0838,0 -0.0838,0.0287 -0.3125,0.2825 l -0.88375,1.02625 c -0.455,-0.855 -1.3975,-1.30875 -2.59375,-1.30875 -2.30875,0 -4.4775,2.10875 -4.4775,4.30125 0,1.455 0.9425,2.31 1.885,2.56875 l 1.93875,0.5125 c 0.68375,0.17125 1.68,0.45375 1.68,1.93875 0,1.62125 -1.485,3.335 -3.27625,3.335 -1.1725,0 -3.19375,-0.40125 -3.19375,-2.65125 0,-0.43 0.1125,-0.88375 0.1125,-0.9725 0.0288,-0.0825 0.0288,-0.1125 0.0288,-0.14125 0,-0.17125 -0.1125,-0.2 -0.2,-0.2 -0.0825,0 -0.14125,0.0288 -0.2,0.0875 -0.0537,0.0538 -1.07875,4.21875 -1.07875,4.2725 0,0.0875 0.0825,0.17125 0.195,0.17125 0.0875,0 0.1175,-0.025 0.34125,-0.28375 l 0.88375,-1.025 c 0.77125,1.055 2.02625,1.30875 3.08125,1.30875 2.48,0 4.615,-2.4225 4.615,-4.6725 0,-1.255 -0.625,-1.88 -0.88,-2.13875 -0.42875,-0.39625 -0.7125,-0.48375 -2.30875,-0.88375 -0.43,-0.1125 -1.055,-0.3125 -1.22625,-0.3425 -0.4875,-0.17125 -1.1125,-0.68375 -1.1125,-1.65 0,-1.485 1.455,-3.0225 3.1925,-3.0225 1.48,0 2.59375,0.79625 2.59375,2.8225 0,0.57125 -0.0587,0.9125 -0.0587,1.025 0,0 0,0.17125 0.2,0.17125 0.2,0 0.22875,-0.0588 0.2875,-0.37125 l 0.99625,-3.96 z"
       inkscape:connector-curvature="0" />
    <path
       id="path36"
       style="fill:#000000;fill-opacity:1;fill-rule:nonzero;stroke:none"
       d="m 403.81089,508.3746 c 0.99625,0 1.70875,0.68375 1.70875,2.05 0,1.5675 -0.9425,2.05625 -1.655,2.05625 -0.5125,0 -1.65125,-0.14625 -2.16375,-0.91375 0.59625,0 0.7425,-0.42875 0.7425,-0.7125 0,-0.4 -0.3175,-0.68375 -0.7125,-0.68375 -0.3425,0 -0.71375,0.225 -0.71375,0.7425 0,1.19625 1.30875,1.9625 2.8475,1.9625 1.7675,0 2.9925,-1.19625 2.9925,-2.45125 0,-0.99625 -0.795,-1.99125 -2.1925,-2.28 1.30875,-0.48375 1.7975,-1.42625 1.7975,-2.22125 0,-0.99625 -1.1425,-1.73875 -2.56875,-1.73875 -1.39625,0 -2.48,0.68375 -2.48,1.70875 0,0.43 0.2875,0.655 0.65875,0.655 0.39625,0 0.655,-0.28375 0.655,-0.625 0,-0.37125 -0.25875,-0.655 -0.655,-0.68375 0.45375,-0.5425 1.30875,-0.68375 1.7925,-0.68375 0.57125,0 1.37125,0.28375 1.37125,1.3675 0,0.54125 -0.17,1.1375 -0.5125,1.50875 -0.4,0.4875 -0.77125,0.5125 -1.40125,0.57125 -0.3125,0.0288 -0.34125,0.0288 -0.395,0.0288 -0.03,0 -0.1425,0.03 -0.1425,0.17125 0,0.17125 0.1125,0.17125 0.3425,0.17125 l 0.68375,0 z"
       inkscape:connector-curvature="0" />
    <path
       id="path38"
       style="fill:#000000;fill-opacity:1;fill-rule:nonzero;stroke:none"
       d="m 426.01714,513.2621 c 0.28375,0 0.625,0 0.625,-0.3425 0,-0.37125 -0.34125,-0.37125 -0.595,-0.37125 l -10.88875,0 c -0.25875,0 -0.60125,0 -0.60125,0.37125 0,0.3425 0.3425,0.3425 0.60125,0.3425 l 10.85875,0 z m 0.03,3.53 c 0.25375,0 0.595,0 0.595,-0.36625 0,-0.34125 -0.34125,-0.34125 -0.625,-0.34125 l -10.85875,0 c -0.25875,0 -0.60125,0 -0.60125,0.34125 0,0.36625 0.3425,0.36625 0.60125,0.36625 l 10.88875,0 z"
       inkscape:connector-curvature="0" />
    <path
       id="path40"
       style="fill:#000000;fill-opacity:1;fill-rule:nonzero;stroke:none"
       d="m 437.87339,507.98835 c 0,-0.7125 0.45875,-1.88 2.45125,-1.9975 0.0875,-0.0288 0.14625,-0.11125 0.14625,-0.2 0,-0.22375 -0.14625,-0.22375 -0.3425,-0.22375 -1.79625,0 -3.48125,0.9375 -3.48125,2.28 l 0,4.16 c 0,0.7125 0,1.28375 -0.7375,1.88 -0.62875,0.54125 -1.3125,0.57125 -1.71375,0.57125 -0.11125,0.0288 -0.17,0.1125 -0.17,0.2 0,0.2 0.11625,0.2 0.2875,0.225 1.19625,0.0588 2.08,0.7125 2.28,1.59625 0.0537,0.2 0.0537,0.25875 0.0537,0.9125 l 0,3.59375 c 0,0.7675 0,1.33875 0.86,2.0225 0.7075,0.54125 1.90875,0.77125 2.62125,0.77125 0.19625,0 0.3425,0 0.3425,-0.23 0,-0.17 -0.0875,-0.17 -0.28875,-0.2 -1.1375,-0.0588 -2.02125,-0.65375 -2.28,-1.5675 -0.0288,-0.17125 -0.0288,-0.2 -0.0288,-0.85375 l 0,-3.81875 c 0,-0.83 -0.17125,-1.1425 -0.7375,-1.73875 -0.37125,-0.37125 -0.91375,-0.54125 -1.42625,-0.7125 1.50875,-0.4 2.16375,-1.255 2.16375,-2.31 l 0,-4.36 z"
       inkscape:connector-curvature="0" />
    <path
       id="path42"
       style="fill:#000000;fill-opacity:1;fill-rule:nonzero;stroke:none"
       d="m 447.81464,523.5796 c 0,-0.0588 0,-0.0888 -0.3125,-0.40125 -2.25125,-2.28 -2.85125,-5.7275 -2.85125,-8.52 0,-3.16375 0.6875,-6.32875 2.93875,-8.57875 0.225,-0.23 0.225,-0.25875 0.225,-0.3175 0,-0.14125 -0.0537,-0.195 -0.17125,-0.195 -0.195,0 -1.82125,1.25 -2.905,3.55875 -0.9125,1.9975 -1.1425,4.01875 -1.1425,5.5325 0,1.42625 0.2,3.61875 1.20125,5.69875 1.10875,2.22125 2.65125,3.4225 2.84625,3.4225 0.1175,0 0.17125,-0.0587 0.17125,-0.2 z"
       inkscape:connector-curvature="0" />
    <path
       id="path44"
       style="fill:#000000;fill-opacity:1;fill-rule:nonzero;stroke:none"
       d="m 454.93839,513.71585 c 0.1175,-0.45375 0.5425,-2.13875 1.7975,-2.13875 0.0875,0 0.54125,0 0.9125,0.23 -0.5125,0.1125 -0.855,0.54125 -0.855,0.99625 0,0.2875 0.20125,0.63 0.68375,0.63 0.40125,0 0.9675,-0.3175 0.9675,-1.055 0,-0.9425 -1.055,-1.19625 -1.68,-1.19625 -1.055,0 -1.68,0.96625 -1.90875,1.36625 -0.45875,-1.19625 -1.42625,-1.36625 -1.9675,-1.36625 -1.88,0 -2.935,2.33375 -2.935,2.7925 0,0.195 0.2,0.195 0.22875,0.195 0.1425,0 0.19625,-0.0537 0.225,-0.195 0.63,-1.93875 1.82625,-2.3975 2.45125,-2.3975 0.3425,0 0.97125,0.17125 0.97125,1.22625 0,0.57125 -0.31625,1.7675 -0.97125,4.335 -0.2825,1.10875 -0.9375,1.88 -1.73875,1.88 -0.11125,0 -0.5125,0 -0.9125,-0.22875 0.45875,-0.1125 0.855,-0.48375 0.855,-0.99625 0,-0.48375 -0.39625,-0.63 -0.655,-0.63 -0.57125,0 -0.99625,0.45875 -0.99625,1.055 0,0.83 0.88375,1.20125 1.68,1.20125 1.225,0 1.885,-1.285 1.90875,-1.3725 0.23,0.65875 0.88375,1.3725 1.96875,1.3725 1.87875,0 2.91,-2.34 2.91,-2.79875 0,-0.195 -0.1475,-0.195 -0.2,-0.195 -0.17125,0 -0.20125,0.0825 -0.26,0.195 -0.595,1.96875 -1.82125,2.3975 -2.3925,2.3975 -0.7125,0 -0.995,-0.57125 -0.995,-1.19625 0,-0.4 0.0825,-0.8 0.2825,-1.59625 l 0.625,-2.51 z"
       inkscape:connector-curvature="0" />
    <path
       id="path46"
       style="fill:#000000;fill-opacity:1;fill-rule:nonzero;stroke:none"
       d="m 462.96089,519.1896 c 0,-1.19625 -0.45375,-1.90875 -1.1675,-1.90875 -0.6,0 -0.97125,0.45375 -0.97125,0.96625 0,0.48375 0.37125,0.97125 0.97125,0.97125 0.19625,0 0.455,-0.0875 0.625,-0.22875 0.0588,-0.0588 0.0888,-0.0588 0.0888,-0.0588 0.0238,0 0.0238,0 0.0238,0.25875 0,1.3675 -0.625,2.45125 -1.225,3.04625 -0.2,0.20125 -0.2,0.23 -0.2,0.28875 0,0.14125 0.0875,0.2 0.175,0.2 0.19625,0 1.68,-1.39625 1.68,-3.535 z"
       inkscape:connector-curvature="0" />
    <path
       id="path48"
       style="fill:#000000;fill-opacity:1;fill-rule:nonzero;stroke:none"
       d="m 476.17339,512.2896 c 0.0888,-0.25375 0.0888,-0.2825 0.0888,-0.42375 0,-0.3175 -0.25875,-0.48875 -0.5425,-0.48875 -0.17125,0 -0.45875,0.1175 -0.63,0.37125 -0.0288,0.1175 -0.2,0.65875 -0.25375,1.00125 -0.14125,0.45375 -0.25875,0.96625 -0.37125,1.45 l -0.825,3.28125 c -0.0587,0.25375 -0.85875,1.5375 -2.055,1.5375 -0.90875,0 -1.10875,-0.8 -1.10875,-1.48375 0,-0.825 0.3125,-1.9675 0.9075,-3.56 0.28875,-0.7425 0.37125,-0.9425 0.37125,-1.31375 0,-0.795 -0.56625,-1.47875 -1.47875,-1.47875 -1.73875,0 -2.3975,2.64625 -2.3975,2.7925 0,0.195 0.175,0.195 0.2,0.195 0.2,0 0.2,-0.0537 0.2875,-0.34125 0.5125,-1.70875 1.22625,-2.25125 1.85125,-2.25125 0.14125,0 0.45875,0 0.45875,0.57125 0,0.45375 -0.2,0.9425 -0.3175,1.285 -0.7375,1.9375 -1.055,2.96375 -1.055,3.8175 0,1.62625 1.1425,2.16875 2.2275,2.16875 0.7125,0 1.3075,-0.3175 1.82125,-0.83 -0.225,0.94125 -0.455,1.855 -1.1675,2.82125 -0.48375,0.60125 -1.1675,1.1425 -1.9975,1.1425 -0.25375,0 -1.08375,-0.0575 -1.39625,-0.77125 0.28875,0 0.5425,0 0.77125,-0.22875 0.20125,-0.1425 0.37125,-0.39625 0.37125,-0.7375 0,-0.57125 -0.4825,-0.63 -0.65375,-0.63 -0.43,0 -1.03,0.2875 -1.03,1.16625 0,0.91375 0.8,1.5975 1.9375,1.5975 1.85625,0 3.73625,-1.65125 4.24875,-3.70125 l 1.7375,-6.95875 z"
       inkscape:connector-curvature="0" />
    <path
       id="path50"
       style="fill:#000000;fill-opacity:1;fill-rule:nonzero;stroke:none"
       d="m 480.60714,519.1896 c 0,-1.19625 -0.45375,-1.90875 -1.16625,-1.90875 -0.60125,0 -0.9725,0.45375 -0.9725,0.96625 0,0.48375 0.37125,0.97125 0.9725,0.97125 0.2,0 0.45375,-0.0875 0.625,-0.22875 0.0587,-0.0588 0.0875,-0.0588 0.0875,-0.0588 0.0288,0 0.0288,0 0.0288,0.25875 0,1.3675 -0.62875,2.45125 -1.225,3.04625 -0.2,0.20125 -0.2,0.23 -0.2,0.28875 0,0.14125 0.0825,0.2 0.17125,0.2 0.2,0 1.67875,-1.39625 1.67875,-3.535 z"
       inkscape:connector-curvature="0" />
    <path
       id="path52"
       style="fill:#000000;fill-opacity:1;fill-rule:nonzero;stroke:none"
       d="m 487.38964,517.7046 c 0.97125,-1.05375 1.51375,-1.50875 2.1675,-2.08 0,0 1.11375,-0.96625 1.76875,-1.625 1.7375,-1.68 2.1375,-2.56375 2.1375,-2.6475 0,-0.17 -0.17,-0.17 -0.2,-0.17 -0.14125,0 -0.17,0.0238 -0.2875,0.195 -0.5375,0.88375 -0.90875,1.17125 -1.3375,1.17125 -0.455,0 -0.655,-0.2875 -0.9425,-0.6 -0.3425,-0.4 -0.655,-0.76625 -1.25,-0.76625 -1.3725,0 -2.1975,1.67875 -2.1975,2.08 0,0.0825 0.0588,0.2 0.2,0.2 0.17125,0 0.2,-0.0875 0.25875,-0.2 0.34125,-0.855 1.39625,-0.855 1.5375,-0.855 0.37125,0 0.71375,0.1125 1.13875,0.25375 0.74125,0.28375 0.9425,0.28375 1.39625,0.28375 -0.655,0.77125 -2.16375,2.085 -2.505,2.3675 l -1.655,1.53875 c -1.22625,1.225 -1.88,2.25125 -1.88,2.3975 0,0.17125 0.2,0.17125 0.22875,0.17125 0.1425,0 0.17125,-0.03 0.28375,-0.23 0.425,-0.65375 0.96625,-1.1425 1.5675,-1.1425 0.4,0 0.6,0.17125 1.055,0.68375 0.2825,0.4 0.625,0.68875 1.1375,0.68875 1.82625,0 2.88,-2.31 2.88,-2.79875 0,-0.0825 -0.0875,-0.195 -0.22875,-0.195 -0.17125,0 -0.2,0.1125 -0.25375,0.25375 -0.43,1.1675 -1.5975,1.51375 -2.1975,1.51375 -0.3425,0 -0.68375,-0.1175 -1.055,-0.22875 -0.625,-0.23 -0.9125,-0.3125 -1.27875,-0.3125 -0.03,0 -0.3175,0 -0.48875,0.0525 z"
       inkscape:connector-curvature="0" />
    <path
       id="path54"
       style="fill:#000000;fill-opacity:1;fill-rule:nonzero;stroke:none"
       d="m 497.92714,519.1896 c 0,-1.19625 -0.45875,-1.90875 -1.1675,-1.90875 -0.6,0 -0.97125,0.45375 -0.97125,0.96625 0,0.48375 0.37125,0.97125 0.97125,0.97125 0.195,0 0.45375,-0.0875 0.625,-0.22875 0.0588,-0.0588 0.0838,-0.0588 0.0838,-0.0588 0.0288,0 0.0288,0 0.0288,0.25875 0,1.3675 -0.625,2.45125 -1.225,3.04625 -0.20125,0.20125 -0.20125,0.23 -0.20125,0.28875 0,0.14125 0.0888,0.2 0.17125,0.2 0.2,0 1.685,-1.39625 1.685,-3.535 z"
       inkscape:connector-curvature="0" />
    <path
       id="path56"
       style="fill:#000000;fill-opacity:1;fill-rule:nonzero;stroke:none"
       d="m 510.71464,513.0621 c 0.0838,-0.40125 0.25375,-1.085 0.25375,-1.19625 0,-0.3175 -0.25375,-0.48875 -0.5125,-0.48875 -0.22875,0 -0.54125,0.14625 -0.68375,0.5125 -0.0587,0.1175 -0.9125,3.59375 -1.025,4.0775 -0.14125,0.54125 -0.17125,0.85375 -0.17125,1.19625 0,0.2 0,0.22875 0.03,0.3175 -0.43,0.96625 -0.9725,1.5375 -1.685,1.5375 -1.455,0 -1.455,-1.3425 -1.455,-1.655 0,-0.57125 0.0875,-1.27875 0.9425,-3.535 0.2,-0.5375 0.3125,-0.79625 0.3125,-1.1675 0,-0.795 -0.59625,-1.47875 -1.48,-1.47875 -1.7375,0 -2.3975,2.64625 -2.3975,2.7925 0,0.195 0.17125,0.195 0.2,0.195 0.20125,0 0.20125,-0.0537 0.28875,-0.34125 0.5125,-1.68 1.19625,-2.25125 1.85,-2.25125 0.17125,0 0.455,0.03 0.455,0.60125 0,0.45375 -0.19625,0.96625 -0.3425,1.28375 -0.795,2.13375 -0.99625,2.96375 -0.99625,3.67625 0,1.65125 1.19625,2.28125 2.56375,2.28125 0.3175,0 1.1725,0 1.885,-1.285 0.48375,1.1675 1.73875,1.285 2.28,1.285 1.3675,0 2.16375,-1.1425 2.65125,-2.2275 0.59625,-1.425 1.19625,-3.87625 1.19625,-4.73125 0,-0.99625 -0.4825,-1.27875 -0.8,-1.27875 -0.455,0 -0.90875,0.4825 -0.90875,0.88375 0,0.22375 0.1125,0.34125 0.25375,0.4825 0.2,0.20125 0.655,0.655 0.655,1.53875 0,0.625 -0.5125,2.3925 -0.99625,3.335 -0.45375,0.96625 -1.11375,1.59625 -1.9975,1.59625 -0.85375,0 -1.3375,-0.54125 -1.3375,-1.59625 0,-0.48375 0.1125,-1.055 0.2,-1.31375 l 0.77125,-3.04625 z"
       inkscape:connector-curvature="0" />
    <path
       id="path58"
       style="fill:#000000;fill-opacity:1;fill-rule:nonzero;stroke:none"
       d="m 521.04214,514.65835 c 0,-1.39625 -0.195,-3.59375 -1.19625,-5.67375 -1.08375,-2.22125 -2.65125,-3.4175 -2.8225,-3.4175 -0.1125,0 -0.2,0.0825 -0.2,0.195 0,0.0588 0,0.0875 0.34625,0.43 1.7925,1.79625 2.8175,4.6725 2.8175,8.46625 0,3.135 -0.65375,6.3275 -2.905,8.60875 -0.25875,0.22375 -0.25875,0.25375 -0.25875,0.3125 0,0.1125 0.0875,0.2 0.2,0.2 0.17125,0 1.82625,-1.255 2.88125,-3.565 0.9425,-1.99625 1.1375,-4.01875 1.1375,-5.55625 z"
       inkscape:connector-curvature="0" />
    <path
       id="path60"
       style="fill:#000000;fill-opacity:1;fill-rule:nonzero;stroke:none"
       d="m 531.80339,506.22085 c 0,-0.3125 0,-0.65375 -0.34125,-0.65375 -0.37125,0 -0.37125,0.34125 -0.37125,0.65375 l 0,16.9 c 0,0.31625 0,0.65875 0.37125,0.65875 0.34125,0 0.34125,-0.3425 0.34125,-0.65875 l 0,-16.9 z"
       inkscape:connector-curvature="0" />
    <path
       id="path62"
       style="fill:#000000;fill-opacity:1;fill-rule:nonzero;stroke:none"
       d="m 369.97714,535.5221 c 0.1175,-0.45375 0.5425,-2.13375 1.7975,-2.13375 0.0875,0 0.54125,0 0.9125,0.225 -0.5125,0.1175 -0.85375,0.5425 -0.85375,1.00125 0,0.2825 0.2,0.625 0.68375,0.625 0.4,0 0.96625,-0.3125 0.96625,-1.055 0,-0.9425 -1.05,-1.19625 -1.68,-1.19625 -1.05375,0 -1.67875,0.96625 -1.90875,1.3675 -0.45375,-1.19625 -1.42625,-1.3675 -1.9675,-1.3675 -1.88,0 -2.935,2.33375 -2.935,2.7925 0,0.20125 0.2,0.20125 0.23,0.20125 0.14125,0 0.2,-0.0587 0.22375,-0.20125 0.63,-1.9375 1.82625,-2.3925 2.45125,-2.3925 0.3425,0 0.9725,0.17125 0.9725,1.22625 0,0.56625 -0.3125,1.7625 -0.9725,4.33125 -0.2825,1.1075 -0.9375,1.88 -1.7375,1.88 -0.1125,0 -0.5125,0 -0.90875,-0.23 0.45375,-0.1125 0.855,-0.48375 0.855,-0.99625 0,-0.48375 -0.40125,-0.625 -0.66,-0.625 -0.56625,0 -0.995,0.45375 -0.995,1.055 0,0.825 0.88375,1.19625 1.67875,1.19625 1.22625,0 1.885,-1.28375 1.91375,-1.3675 0.225,0.655 0.885,1.3675 1.96375,1.3675 1.885,0 2.91,-2.33875 2.91,-2.7925 0,-0.20125 -0.14125,-0.20125 -0.2,-0.20125 -0.17125,0 -0.2,0.0838 -0.25875,0.20125 -0.59625,1.9625 -1.82125,2.3925 -2.3925,2.3925 -0.71375,0 -0.99625,-0.57125 -0.99625,-1.19625 0,-0.40125 0.0825,-0.80125 0.2825,-1.5975 l 0.625,-2.51 z"
       inkscape:connector-curvature="0" />
    <path
       id="path64"
       style="fill:#000000;fill-opacity:1;fill-rule:nonzero;stroke:none"
       d="m 380.70964,532.1196 -0.42875,0 c -0.03,0.2875 -0.17125,1.025 -0.3425,1.1425 -0.0825,0.0825 -1.055,0.0825 -1.255,0.0825 l -2.33375,0 c 1.3375,-1.16625 1.7925,-1.5375 2.53375,-2.13875 0.9425,-0.7375 1.82625,-1.5375 1.82625,-2.73375 0,-1.53875 -1.3425,-2.48125 -2.96375,-2.48125 -1.5675,0 -2.65125,1.11375 -2.65125,2.28125 0,0.63 0.5425,0.7125 0.68375,0.7125 0.28375,0 0.65375,-0.23 0.65375,-0.68375 0,-0.23 -0.0825,-0.68375 -0.74125,-0.68375 0.4,-0.88375 1.255,-1.16625 1.855,-1.16625 1.28,0 1.93875,0.995 1.93875,2.02125 0,1.1125 -0.80125,1.9675 -1.19625,2.42125 l -3.0525,3.0525 c -0.14125,0.1125 -0.14125,0.14125 -0.14125,0.4825 l 5.24375,0 0.37125,-2.30875 z"
       inkscape:connector-curvature="0" />
    <path
       id="path66"
       style="fill:#000000;fill-opacity:1;fill-rule:nonzero;stroke:none"
       d="m 393.92839,536.83585 5.0725,0 c 0.25375,0 0.59625,0 0.59625,-0.37125 0,-0.34125 -0.3425,-0.34125 -0.59625,-0.34125 l -5.0725,0 0,-5.1025 c 0,-0.25875 0,-0.60125 -0.37125,-0.60125 -0.37125,0 -0.37125,0.3425 -0.37125,0.60125 l 0,5.1025 -5.07375,0 c -0.25875,0 -0.6,0 -0.6,0.34125 0,0.37125 0.34125,0.37125 0.6,0.37125 l 5.07375,0 0,5.1025 c 0,0.25375 0,0.59625 0.37125,0.59625 0.37125,0 0.37125,-0.3425 0.37125,-0.59625 l 0,-5.1025 z"
       inkscape:connector-curvature="0" />
    <path
       id="path68"
       style="fill:#000000;fill-opacity:1;fill-rule:nonzero;stroke:none"
       d="m 413.49839,534.0971 c 0.0825,-0.25375 0.0825,-0.28375 0.0825,-0.425 0,-0.3125 -0.25375,-0.48375 -0.54125,-0.48375 -0.17125,0 -0.455,0.1125 -0.625,0.37125 -0.03,0.1125 -0.20125,0.655 -0.25875,0.99625 -0.1425,0.45375 -0.255,0.96625 -0.37125,1.455 l -0.825,3.27625 c -0.0587,0.25375 -0.855,1.53875 -2.05125,1.53875 -0.91375,0 -1.11375,-0.79625 -1.11375,-1.48 0,-0.83 0.3125,-1.9675 0.91375,-3.565 0.2825,-0.74125 0.37125,-0.94125 0.37125,-1.3125 0,-0.79625 -0.57125,-1.48 -1.485,-1.48 -1.73875,0 -2.3925,2.65125 -2.3925,2.7925 0,0.20125 0.17125,0.20125 0.2,0.20125 0.2,0 0.2,-0.0587 0.28375,-0.3425 0.5125,-1.71375 1.225,-2.25125 1.855,-2.25125 0.14125,0 0.45375,0 0.45375,0.56625 0,0.46 -0.2,0.9425 -0.3125,1.285 -0.74125,1.93875 -1.05375,2.96375 -1.05375,3.81875 0,1.625 1.1375,2.1675 2.22125,2.1675 0.7125,0 1.31375,-0.3125 1.82625,-0.83 -0.23,0.9425 -0.45875,1.855 -1.1725,2.8225 -0.4825,0.6 -1.16625,1.1425 -1.99125,1.1425 -0.25875,0 -1.08375,-0.0588 -1.39625,-0.77125 0.2825,0 0.54125,0 0.76625,-0.225 0.2,-0.14625 0.37125,-0.4 0.37125,-0.7425 0,-0.57125 -0.48375,-0.63 -0.655,-0.63 -0.43,0 -1.025,0.28875 -1.025,1.1725 0,0.9075 0.79625,1.59625 1.93875,1.59625 1.85,0 3.735,-1.655 4.2475,-3.70625 l 1.73875,-6.9575 z"
       inkscape:connector-curvature="0" />
    <path
       id="path70"
       style="fill:#000000;fill-opacity:1;fill-rule:nonzero;stroke:none"
       d="m 420.63714,532.1196 -0.43,0 c -0.0288,0.2875 -0.17125,1.025 -0.34125,1.1425 -0.0837,0.0825 -1.055,0.0825 -1.255,0.0825 l -2.335,0 c 1.33875,-1.16625 1.7925,-1.5375 2.535,-2.13875 0.9425,-0.7375 1.82625,-1.5375 1.82625,-2.73375 0,-1.53875 -1.34375,-2.48125 -2.96375,-2.48125 -1.5675,0 -2.65125,1.11375 -2.65125,2.28125 0,0.63 0.54125,0.7125 0.6825,0.7125 0.28375,0 0.655,-0.23 0.655,-0.68375 0,-0.23 -0.0838,-0.68375 -0.7425,-0.68375 0.4,-0.88375 1.255,-1.16625 1.855,-1.16625 1.285,0 1.93875,0.995 1.93875,2.02125 0,1.1125 -0.8,1.9675 -1.19625,2.42125 l -3.05125,3.0525 c -0.14125,0.1125 -0.14125,0.14125 -0.14125,0.4825 l 5.24375,0 0.37125,-2.30875 z"
       inkscape:connector-curvature="0" />
    <path
       id="path72"
       style="fill:#000000;fill-opacity:1;fill-rule:nonzero;stroke:none"
       d="m 433.85464,536.83585 5.07375,0 c 0.25375,0 0.595,0 0.595,-0.37125 0,-0.34125 -0.34125,-0.34125 -0.595,-0.34125 l -5.07375,0 0,-5.1025 c 0,-0.25875 0,-0.60125 -0.37125,-0.60125 -0.37125,0 -0.37125,0.3425 -0.37125,0.60125 l 0,5.1025 -5.0725,0 c -0.25875,0 -0.60125,0 -0.60125,0.34125 0,0.37125 0.3425,0.37125 0.60125,0.37125 l 5.0725,0 0,5.1025 c 0,0.25375 0,0.59625 0.37125,0.59625 0.37125,0 0.37125,-0.3425 0.37125,-0.59625 l 0,-5.1025 z"
       inkscape:connector-curvature="0" />
    <path
       id="path74"
       style="fill:#000000;fill-opacity:1;fill-rule:nonzero;stroke:none"
       d="m 447.00839,539.5171 c 0.9725,-1.055 1.51375,-1.51375 2.16875,-2.085 0,0 1.1125,-0.9675 1.7675,-1.62125 1.7375,-1.685 2.13875,-2.56875 2.13875,-2.65125 0,-0.17125 -0.17125,-0.17125 -0.2,-0.17125 -0.1425,0 -0.17125,0.0288 -0.28875,0.2 -0.5375,0.88375 -0.9075,1.1675 -1.3375,1.1675 -0.45375,0 -0.655,-0.28375 -0.9425,-0.60125 -0.3425,-0.395 -0.655,-0.76625 -1.25,-0.76625 -1.3725,0 -2.1975,1.68 -2.1975,2.08 0,0.0838 0.0587,0.2 0.2,0.2 0.17125,0 0.2,-0.0875 0.25875,-0.2 0.3425,-0.85375 1.39625,-0.85375 1.53875,-0.85375 0.37125,0 0.7125,0.11125 1.1375,0.25375 0.7425,0.2875 0.9425,0.2875 1.39625,0.2875 -0.65375,0.76625 -2.1625,2.08 -2.505,2.36375 l -1.655,1.5375 c -1.225,1.22625 -1.88,2.25625 -1.88,2.3975 0,0.17125 0.2,0.17125 0.225,0.17125 0.14625,0 0.175,-0.03 0.2875,-0.23 0.425,-0.65375 0.9675,-1.1375 1.5675,-1.1375 0.4,0 0.60125,0.17125 1.055,0.68375 0.2825,0.395 0.625,0.68375 1.1375,0.68375 1.82625,0 2.88125,-2.31 2.88125,-2.7925 0,-0.0888 -0.0888,-0.20125 -0.23,-0.20125 -0.17125,0 -0.2,0.1125 -0.25375,0.25375 -0.43,1.1725 -1.59625,1.51375 -2.1975,1.51375 -0.34125,0 -0.68375,-0.11625 -1.055,-0.22875 -0.625,-0.23 -0.9125,-0.3125 -1.27875,-0.3125 -0.0288,0 -0.3175,0 -0.48875,0.0588 z"
       inkscape:connector-curvature="0" />
    <path
       id="path76"
       style="fill:#000000;fill-opacity:1;fill-rule:nonzero;stroke:none"
       d="m 460.25089,532.1196 -0.43,0 c -0.0238,0.2875 -0.17,1.025 -0.34125,1.1425 -0.0825,0.0825 -1.055,0.0825 -1.25,0.0825 l -2.33875,0 c 1.3375,-1.16625 1.79625,-1.5375 2.53375,-2.13875 0.9425,-0.7375 1.82625,-1.5375 1.82625,-2.73375 0,-1.53875 -1.3375,-2.48125 -2.96375,-2.48125 -1.5675,0 -2.65125,1.11375 -2.65125,2.28125 0,0.63 0.5425,0.7125 0.68375,0.7125 0.2875,0 0.65375,-0.23 0.65375,-0.68375 0,-0.23 -0.0825,-0.68375 -0.7375,-0.68375 0.39625,-0.88375 1.255,-1.16625 1.85125,-1.16625 1.28375,0 1.93875,0.995 1.93875,2.02125 0,1.1125 -0.79625,1.9675 -1.19625,2.42125 l -3.0525,3.0525 c -0.14125,0.1125 -0.14125,0.14125 -0.14125,0.4825 l 5.24375,0 0.37125,-2.30875 z"
       inkscape:connector-curvature="0" />
    <path
       id="path78"
       style="fill:#000000;fill-opacity:1;fill-rule:nonzero;stroke:none"
       d="m 473.46839,536.83585 5.07375,0 c 0.25375,0 0.6,0 0.6,-0.37125 0,-0.34125 -0.34625,-0.34125 -0.6,-0.34125 l -5.07375,0 0,-5.1025 c 0,-0.25875 0,-0.60125 -0.37125,-0.60125 -0.37,0 -0.37,0.3425 -0.37,0.60125 l 0,5.1025 -5.07375,0 c -0.25375,0 -0.6,0 -0.6,0.34125 0,0.37125 0.34625,0.37125 0.6,0.37125 l 5.07375,0 0,5.1025 c 0,0.25375 0,0.59625 0.37,0.59625 0.37125,0 0.37125,-0.3425 0.37125,-0.59625 l 0,-5.1025 z"
       inkscape:connector-curvature="0" />
    <path
       id="path80"
       style="fill:#000000;fill-opacity:1;fill-rule:nonzero;stroke:none"
       d="m 492.60964,534.86835 c 0.0875,-0.4 0.25875,-1.08375 0.25875,-1.19625 0,-0.3125 -0.25875,-0.48375 -0.5125,-0.48375 -0.23,0 -0.5425,0.14125 -0.68375,0.5125 -0.0588,0.1125 -0.91375,3.58875 -1.025,4.0725 -0.1475,0.5425 -0.17125,0.86 -0.17125,1.20125 0,0.195 0,0.225 0.0238,0.3125 -0.42375,0.9675 -0.96625,1.53875 -1.67875,1.53875 -1.455,0 -1.455,-1.33875 -1.455,-1.65625 0,-0.56625 0.0875,-1.27875 0.94125,-3.53 0.20125,-0.54125 0.3125,-0.8 0.3125,-1.17125 0,-0.79625 -0.595,-1.48 -1.47875,-1.48 -1.73875,0 -2.3975,2.65125 -2.3975,2.7925 0,0.20125 0.17125,0.20125 0.2,0.20125 0.2,0 0.2,-0.0587 0.2875,-0.3425 0.51375,-1.685 1.1975,-2.25125 1.85125,-2.25125 0.17125,0 0.45375,0.025 0.45375,0.59625 0,0.45375 -0.195,0.97125 -0.34125,1.28375 -0.79625,2.13875 -0.99625,2.96375 -0.99625,3.6775 0,1.65 1.19625,2.28 2.56375,2.28 0.3175,0 1.17125,0 1.885,-1.28375 0.4825,1.16625 1.7375,1.28375 2.28,1.28375 1.36625,0 2.1625,-1.1425 2.64625,-2.22625 0.6,-1.42125 1.20125,-3.8725 1.20125,-4.7325 0,-0.995 -0.48875,-1.27875 -0.80125,-1.27875 -0.45375,0 -0.9125,0.48375 -0.9125,0.88375 0,0.225 0.1175,0.3425 0.25875,0.48375 0.2,0.2 0.65375,0.65375 0.65375,1.5375 0,0.63 -0.5125,2.3975 -0.99625,3.335 -0.45375,0.9725 -1.1125,1.5975 -1.99625,1.5975 -0.855,0 -1.33875,-0.5425 -1.33875,-1.5975 0,-0.4825 0.1125,-1.055 0.20125,-1.30875 l 0.76625,-3.05125 z"
       inkscape:connector-curvature="0" />
    <path
       id="path82"
       style="fill:#000000;fill-opacity:1;fill-rule:nonzero;stroke:none"
       d="m 504.11339,532.1196 -0.425,0 c -0.0288,0.2875 -0.17125,1.025 -0.34125,1.1425 -0.0888,0.0825 -1.055,0.0825 -1.255,0.0825 l -2.33875,0 c 1.3425,-1.16625 1.79625,-1.5375 2.53875,-2.13875 0.9375,-0.7375 1.82125,-1.5375 1.82125,-2.73375 0,-1.53875 -1.3375,-2.48125 -2.96375,-2.48125 -1.5675,0 -2.65125,1.11375 -2.65125,2.28125 0,0.63 0.54125,0.7125 0.68375,0.7125 0.2875,0 0.65875,-0.23 0.65875,-0.68375 0,-0.23 -0.0875,-0.68375 -0.7425,-0.68375 0.40125,-0.88375 1.255,-1.16625 1.85125,-1.16625 1.28375,0 1.93875,0.995 1.93875,2.02125 0,1.1125 -0.79625,1.9675 -1.1975,2.42125 l -3.04625,3.0525 c -0.14625,0.1125 -0.14625,0.14125 -0.14625,0.4825 l 5.24375,0 0.37125,-2.30875 z"
       inkscape:connector-curvature="0" />
    <path
       id="path84"
       style="fill:#000000;fill-opacity:1;fill-rule:nonzero;stroke:none"
       d="m 523.38589,535.06835 c 0.2875,0 0.63,0 0.63,-0.34125 0,-0.37125 -0.3425,-0.37125 -0.60125,-0.37125 l -10.88875,0 c -0.25375,0 -0.595,0 -0.595,0.37125 0,0.34125 0.34125,0.34125 0.595,0.34125 l 10.86,0 z m 0.0287,3.535 c 0.25875,0 0.60125,0 0.60125,-0.37125 0,-0.34125 -0.3425,-0.34125 -0.63,-0.34125 l -10.86,0 c -0.25375,0 -0.595,0 -0.595,0.34125 0,0.37125 0.34125,0.37125 0.595,0.37125 l 10.88875,0 z"
       inkscape:connector-curvature="0" />
    <path
       id="path86"
       style="fill:#000000;fill-opacity:1;fill-rule:nonzero;stroke:none"
       d="m 536.89714,529.85335 c 0.11625,-0.43 0.17,-0.6 0.5125,-0.65875 0.17,-0.025 0.74125,-0.025 1.1125,-0.025 1.285,0 3.30625,0 3.30625,1.7925 0,0.63 -0.28375,1.885 -0.99625,2.5975 -0.48375,0.45375 -1.42625,1.055 -3.08125,1.055 l -2.02125,0 1.1675,-4.76125 z m 2.62125,4.98625 c 1.85625,-0.40125 3.995,-1.68 3.995,-3.50625 0,-1.5675 -1.62625,-2.735 -4.01875,-2.735 l -5.16125,0 c -0.37125,0 -0.5425,0 -0.5425,0.37125 0,0.2 0.17125,0.2 0.5125,0.2 0.03,0 0.37125,0 0.68375,0.025 0.3425,0.0587 0.48875,0.0587 0.48875,0.3175 0,0.0537 0,0.1125 -0.0588,0.34125 l -2.45125,9.74625 c -0.17125,0.7125 -0.2,0.855 -1.655,0.855 -0.3125,0 -0.48375,0 -0.48375,0.37125 0,0.2 0.23,0.2 0.25875,0.2 0.5125,0 1.7925,-0.0588 2.28,-0.0588 0.5125,0 1.82125,0.0588 2.335,0.0588 0.14125,0 0.34125,0 0.34125,-0.37125 0,-0.2 -0.14125,-0.2 -0.5125,-0.2 -0.655,0 -1.1675,0 -1.1675,-0.3125 0,-0.1125 0.03,-0.2 0.0588,-0.3125 l 1.19625,-4.82 2.16375,0 c 1.655,0 1.9675,1.02625 1.9675,1.655 0,0.255 -0.1425,0.82625 -0.25375,1.255 -0.1175,0.51375 -0.28875,1.1675 -0.28875,1.53875 0,1.9675 2.1975,1.9675 2.4225,1.9675 1.5425,0 2.1975,-1.82625 2.1975,-2.08 0,-0.23 -0.20125,-0.23 -0.23,-0.23 -0.17125,0 -0.2,0.1125 -0.23,0.255 -0.45375,1.3425 -1.25,1.655 -1.65,1.655 -0.6,0 -0.7425,-0.40125 -0.7425,-1.11375 0,-0.56625 0.1125,-1.47875 0.2,-2.08 0.03,-0.25375 0.0587,-0.59625 0.0587,-0.855 0,-1.39625 -1.225,-1.9675 -1.71375,-2.1375 z"
       inkscape:connector-curvature="0" />
    <path
       id="path88"
       style="fill:#000000;fill-opacity:1;fill-rule:nonzero;stroke:none"
       d="m 550.44089,532.1196 -0.42875,0 c -0.03,0.2875 -0.17125,1.025 -0.3425,1.1425 -0.0875,0.0825 -1.05375,0.0825 -1.255,0.0825 l -2.33875,0 c 1.3425,-1.16625 1.7975,-1.5375 2.54,-2.13875 0.94125,-0.7375 1.825,-1.5375 1.825,-2.73375 0,-1.53875 -1.3425,-2.48125 -2.96375,-2.48125 -1.57125,0 -2.65125,1.11375 -2.65125,2.28125 0,0.63 0.5425,0.7125 0.68375,0.7125 0.28375,0 0.655,-0.23 0.655,-0.68375 0,-0.23 -0.0888,-0.68375 -0.7425,-0.68375 0.4,-0.88375 1.255,-1.16625 1.855,-1.16625 1.28,0 1.93875,0.995 1.93875,2.02125 0,1.1125 -0.80125,1.9675 -1.20125,2.42125 l -3.04625,3.0525 c -0.1425,0.1125 -0.1425,0.14125 -0.1425,0.4825 l 5.245,0 0.37,-2.30875 z"
       inkscape:connector-curvature="0" />
    <path
       id="path90"
       style="fill:#000000;fill-opacity:1;fill-rule:nonzero;stroke:none"
       d="m 556.11089,543.1646 c 0,0.7125 -0.48375,1.88 -2.45125,1.99125 -0.1125,0.03 -0.17125,0.1175 -0.17125,0.20125 0,0.22875 0.2,0.22875 0.37125,0.22875 1.7675,0 3.4475,-0.9125 3.47625,-2.28 l 0,-4.16 c 0,-0.7125 0,-1.285 0.7125,-1.885 0.63,-0.5425 1.34375,-0.56625 1.73875,-0.56625 0.0875,-0.03 0.14625,-0.1175 0.14625,-0.23 0,-0.17 -0.0875,-0.17 -0.2875,-0.2 -1.19625,-0.0587 -2.08,-0.7125 -2.28,-1.59625 -0.03,-0.2 -0.03,-0.25375 -0.03,-0.91375 l 0,-3.58875 c 0,-0.77125 0,-1.3375 -0.88375,-2.02625 -0.7375,-0.56625 -1.9925,-0.76625 -2.5925,-0.76625 -0.17125,0 -0.37125,0 -0.37125,0.22875 0,0.17125 0.1175,0.17125 0.2875,0.19625 1.13875,0.0587 2.05125,0.65875 2.28125,1.5675 0.0538,0.17 0.0538,0.2 0.0538,0.85875 l 0,3.81875 c 0,0.825 0.14625,1.1375 0.7125,1.7375 0.4,0.37125 0.9125,0.5425 1.42625,0.68375 -1.48,0.425 -2.13875,1.285 -2.13875,2.33875 l 0,4.36125 z"
       inkscape:connector-curvature="0" />
    <g
       transform="matrix(1.25,0,0,1.25,180.77839,299.91222)"
       id="g92">
      <path
         id="path94"
         style="fill:none;stroke:#000000;stroke-width:4;stroke-linecap:butt;stroke-linejoin:miter;stroke-miterlimit:4;stroke-opacity:1;stroke-dasharray:none"
         d="m 70.312,109.695 22.446,0"
         inkscape:connector-curvature="0" />
    </g>
    <g
       transform="matrix(1.25,0,0,1.25,180.77839,299.91222)"
       id="g96">
      <path
         id="path98"
         style="fill:none;stroke:#000000;stroke-width:4;stroke-linecap:butt;stroke-linejoin:miter;stroke-miterlimit:4;stroke-opacity:1;stroke-dasharray:none"
         d="m 92.758,109.695 22.441,0"
         inkscape:connector-curvature="0" />
    </g>
    <g
       transform="matrix(1.25,0,0,1.25,180.77839,299.91222)"
       id="g100">
      <path
         id="path102"
         style="fill:none;stroke:#000000;stroke-width:0.80000001;stroke-linecap:butt;stroke-linejoin:miter;stroke-miterlimit:4;stroke-opacity:1;stroke-dasharray:none"
         d="M 51.16,27.215 92.207,202.02 136.34,28.25"
         inkscape:connector-curvature="0" />
    </g>
    <path
       id="path104"
       style="fill:#000000;fill-opacity:1;fill-rule:nonzero;stroke:none"
       d="m 332.55089,476.75835 c -0.0288,-0.0588 -0.0875,-0.2 -0.0875,-0.25875 0,0 0.3125,-0.25875 0.5125,-0.40125 l 3.1925,-2.45125 c 1.71,-1.27875 2.4225,-1.3375 2.965,-1.39625 0.14125,-0.0288 0.3125,-0.0288 0.3125,-0.37125 0,-0.0537 -0.0538,-0.2 -0.19625,-0.2 -0.4,0 -0.85875,0.0588 -1.28375,0.0588 -0.65375,0 -1.3675,-0.0588 -2.02625,-0.0588 -0.1125,0 -0.3425,0 -0.3425,0.37125 0,0.1175 0.0887,0.17125 0.23,0.2 0.4,0.03 0.5425,0.1175 0.5425,0.37125 0,0.3425 -0.5425,0.77125 -0.655,0.855 l -7.07,5.44375 1.455,-5.84 c 0.14125,-0.65875 0.2,-0.83 1.50875,-0.83 0.45875,0 0.63,0 0.63,-0.37125 0,-0.14125 -0.14625,-0.2 -0.25875,-0.2 -0.5125,0 -1.82625,0.0588 -2.33875,0.0588 -0.5125,0 -1.7925,-0.0588 -2.33375,-0.0588 -0.1175,0 -0.37125,0 -0.37125,0.3475 0,0.22375 0.17,0.22375 0.54125,0.22375 0.225,0 0.56625,0.03 0.7675,0.03 0.2875,0.0588 0.4,0.0875 0.4,0.3125 0,0.0588 0,0.11625 -0.0587,0.34125 l -2.45125,9.75125 c -0.17125,0.7125 -0.2,0.85375 -1.65,0.85375 -0.3125,0 -0.5125,0 -0.5125,0.3425 0,0.22875 0.22375,0.22875 0.2825,0.22875 0.5125,0 1.7975,-0.0575 2.31,-0.0575 0.37125,0 0.77125,0.0288 1.16625,0.0288 0.40125,0 0.80125,0.0288 1.1725,0.0288 0.14125,0 0.36625,0 0.36625,-0.37 0,-0.20125 -0.17125,-0.20125 -0.5125,-0.20125 -0.68375,0 -1.1675,0 -1.1675,-0.3125 0,-0.14625 0.0888,-0.54125 0.14125,-0.8 0.26,-0.9675 0.51375,-1.91 0.7425,-2.87625 l 2.71,-2.10875 2.11,4.90125 c 0.22375,0.48375 0.22375,0.5425 0.22375,0.625 0,0.57125 -0.795,0.57125 -0.96625,0.57125 -0.2,0 -0.4,0 -0.4,0.37125 0,0.2 0.22875,0.2 0.25875,0.2 0.7375,0 1.50875,-0.0575 2.22125,-0.0575 0.4,0 1.39625,0.0575 1.7975,0.0575 0.0825,0 0.3125,0 0.3125,-0.37 0,-0.20125 -0.20125,-0.20125 -0.37125,-0.20125 -0.7425,0 -0.9725,-0.17 -1.255,-0.8 l -2.56375,-5.98125 z"
       inkscape:connector-curvature="0" />
    <path
       id="path106"
       style="fill:#000000;fill-opacity:1;fill-rule:nonzero;stroke:none"
       d="m 357.03839,475.0146 c 0.3175,0 0.65875,0 0.65875,-0.36625 0,-0.37125 -0.34125,-0.37125 -0.65875,-0.37125 l -4.87375,0 c -3.105,0 -5.585,2.36375 -5.585,5.27375 0,2.935 2.48,5.2975 5.585,5.2975 l 4.87375,0 c 0.3175,0 0.65875,0 0.65875,-0.37125 0,-0.36625 -0.34125,-0.36625 -0.65875,-0.36625 l -4.84375,0 c -2.8225,0 -4.9025,-2.10875 -4.9025,-4.56 0,-2.42625 2.08,-4.53625 4.9025,-4.53625 l 4.84375,0 z"
       inkscape:connector-curvature="0" />
    <path
       id="path108"
       style="fill:#000000;fill-opacity:1;fill-rule:nonzero;stroke:none"
       d="m 367.15964,482.68585 c -0.17,0.7125 -0.22875,0.85375 -1.655,0.85375 -0.3125,0 -0.4825,0 -0.4825,0.37125 0,0.2 0.17,0.2 0.4825,0.2 l 6.49875,0 c 2.88125,0 5.015,-2.1375 5.015,-3.935 0,-1.31375 -1.055,-2.36375 -2.8225,-2.56375 1.885,-0.34125 3.795,-1.68375 3.795,-3.4225 0,-1.3375 -1.1975,-2.51 -3.365,-2.51 l -6.1275,0 c -0.3425,0 -0.5125,0 -0.5125,0.37125 0,0.2 0.17,0.2 0.5125,0.2 0.0288,0 0.37125,0 0.68375,0.03 0.3125,0.0588 0.4825,0.0588 0.4825,0.3125 0,0.0588 -0.0238,0.11625 -0.0538,0.34125 l -2.45125,9.75125 z m 2.735,-5.24375 1.1425,-4.5075 c 0.17125,-0.625 0.195,-0.68375 0.96625,-0.68375 l 2.36875,0 c 1.59125,0 1.9625,1.08375 1.9625,1.88 0,1.59625 -1.5675,3.31125 -3.75875,3.31125 l -2.68125,0 z m -0.79625,6.0975 -0.4,0 c -0.2,-0.0288 -0.25875,-0.0575 -0.25875,-0.2 0,-0.0588 0,-0.0875 0.1175,-0.4 l 1.255,-5.07375 3.4175,0 c 1.73875,0 2.10875,1.34375 2.10875,2.11 0,1.79625 -1.625,3.56375 -3.78875,3.56375 l -2.45125,0 z"
       inkscape:connector-curvature="0" />
    <path
       id="path110"
       style="fill:#000000;fill-opacity:1;fill-rule:nonzero;stroke:none"
       d="m 382.42339,473.2671 c 1.00125,0 1.715,0.68375 1.715,2.05 0,1.5675 -0.9425,2.05125 -1.65625,2.05125 -0.5125,0 -1.65,-0.14125 -2.1675,-0.90875 0.6,0 0.7425,-0.42875 0.7425,-0.7125 0,-0.4 -0.3125,-0.68375 -0.71375,-0.68375 -0.34125,0 -0.7125,0.225 -0.7125,0.7375 0,1.20125 1.31375,1.9675 2.85125,1.9675 1.7675,0 2.99375,-1.19625 2.99375,-2.45125 0,-0.99625 -0.79625,-1.99125 -2.1925,-2.28 1.30875,-0.48375 1.7925,-1.42625 1.7925,-2.22125 0,-0.99625 -1.13875,-1.73875 -2.56375,-1.73875 -1.39625,0 -2.48125,0.68375 -2.48125,1.70875 0,0.43 0.28375,0.655 0.655,0.655 0.4,0 0.65875,-0.28375 0.65875,-0.625 0,-0.37125 -0.25875,-0.655 -0.65875,-0.68375 0.45875,-0.5425 1.31375,-0.68375 1.79625,-0.68375 0.57125,0 1.3675,0.28375 1.3675,1.3675 0,0.54125 -0.17125,1.1375 -0.5125,1.50875 -0.4,0.4875 -0.76625,0.5125 -1.39625,0.57125 -0.3125,0.0288 -0.3425,0.0288 -0.40125,0.0288 -0.0238,0 -0.14125,0.03 -0.14125,0.17125 0,0.17125 0.1175,0.17125 0.3425,0.17125 l 0.6825,0 z"
       inkscape:connector-curvature="0" />
    <path
       id="path112"
       style="fill:#000000;fill-opacity:1;fill-rule:nonzero;stroke:none"
       d="m 293.11214,408.6521 c -0.17125,0.71375 -0.22875,0.855 -1.655,0.855 -0.3125,0 -0.48375,0 -0.48375,0.37125 0,0.2 0.17125,0.2 0.48375,0.2 l 6.49875,0 c 2.88125,0 5.02,-2.13875 5.02,-3.93625 0,-1.3075 -1.055,-2.3625 -2.8225,-2.5625 1.88,-0.3425 3.78875,-1.68 3.78875,-3.41875 0,-1.3425 -1.19625,-2.50875 -3.36375,-2.50875 l -6.1275,0 c -0.3425,0 -0.51375,0 -0.51375,0.37 0,0.20125 0.17125,0.20125 0.51375,0.20125 0.0288,0 0.37,0 0.6825,0.0288 0.3175,0.0538 0.48875,0.0538 0.48875,0.3125 0,0.0538 -0.0288,0.1125 -0.0587,0.34125 l -2.45125,9.74625 z m 2.735,-5.24375 1.1425,-4.5025 c 0.17,-0.62875 0.2,-0.6825 0.96625,-0.6825 l 2.36875,0 c 1.59625,0 1.9625,1.08375 1.9625,1.87875 0,1.5975 -1.5675,3.30625 -3.76,3.30625 l -2.68,0 z m -0.79625,6.09875 -0.4,0 c -0.2,-0.03 -0.25375,-0.0537 -0.25375,-0.2 0,-0.0537 0,-0.0838 0.11125,-0.39625 l 1.255,-5.0725 3.41875,0 c 1.7375,0 2.10875,1.3375 2.10875,2.10875 0,1.7925 -1.62625,3.56 -3.78875,3.56 l -2.45125,0 z"
       inkscape:connector-curvature="0" />
    <path
       id="path114"
       style="fill:#000000;fill-opacity:1;fill-rule:nonzero;stroke:none"
       d="m 308.38089,399.23335 c 0.99625,0 1.70875,0.68375 1.70875,2.05625 0,1.5675 -0.9425,2.05 -1.655,2.05 -0.5125,0 -1.65,-0.14125 -2.1625,-0.9125 0.595,0 0.73625,-0.425 0.73625,-0.7125 0,-0.40125 -0.3125,-0.68375 -0.7125,-0.68375 -0.34125,0 -0.7075,0.22875 -0.7075,0.74125 0,1.19625 1.30875,1.96875 2.84625,1.96875 1.7675,0 2.99375,-1.20125 2.99375,-2.45125 0,-1.00125 -0.79625,-1.9975 -2.1925,-2.28125 1.3075,-0.4875 1.79125,-1.425 1.79125,-2.22625 0,-0.99625 -1.1375,-1.7375 -2.56375,-1.7375 -1.39625,0 -2.48,0.6825 -2.48,1.71375 0,0.425 0.28875,0.65375 0.65875,0.65375 0.39625,0 0.655,-0.2875 0.655,-0.63 0,-0.37125 -0.25875,-0.65375 -0.655,-0.68375 0.455,-0.54125 1.30875,-0.68375 1.7925,-0.68375 0.57125,0 1.3675,0.28875 1.3675,1.3675 0,0.5425 -0.17125,1.1425 -0.5125,1.51375 -0.39625,0.48375 -0.7675,0.5125 -1.3975,0.56625 -0.3125,0.03 -0.34125,0.03 -0.395,0.03 -0.0288,0 -0.14625,0.0287 -0.14625,0.17 0,0.17125 0.1175,0.17125 0.34625,0.17125 l 0.68375,0 z"
       inkscape:connector-curvature="0" />
    <g
       transform="matrix(1.25,0,0,1.25,180.77839,299.91222)"
       id="g116">
      <path
         id="path118"
         style="fill:none;stroke:#000000;stroke-width:4;stroke-linecap:butt;stroke-linejoin:miter;stroke-miterlimit:4;stroke-opacity:1;stroke-dasharray:none"
         d="M 51.16,27.215 C 81.582,12.852 109.68,15.32 136.34,28.25"
         inkscape:connector-curvature="0" />
    </g>
    <g
       transform="matrix(1.25,0,0,1.25,180.77839,299.91222)"
       id="g120">
      <path
         id="path122"
         style="fill:#ffffff;fill-opacity:1;fill-rule:nonzero;stroke:#000000;stroke-width:0.56;stroke-linecap:butt;stroke-linejoin:miter;stroke-miterlimit:4;stroke-opacity:1;stroke-dasharray:none"
         d="m 97.309,17.355 c 0,1.657 -1.344,3.004 -3.004,3.004 -1.66,0 -3.004,-1.347 -3.004,-3.004 0,-1.66 1.344,-3.003 3.004,-3.003 1.66,0 3.004,1.343 3.004,3.003 z"
         inkscape:connector-curvature="0" />
    </g>
    <g
       transform="matrix(1.25,0,0,1.25,180.77839,299.91222)"
       id="g124">
      <path
         id="path126"
         style="fill:none;stroke:#000000;stroke-width:0.80000001;stroke-linecap:butt;stroke-linejoin:miter;stroke-miterlimit:4;stroke-opacity:1;stroke-dasharray:none"
         d="M 92.207,202.02 67.469,21.031"
         inkscape:connector-curvature="0" />
    </g>
    <g
       transform="matrix(1.25,0,0,1.25,180.77839,299.91222)"
       id="g128">
      <path
         id="path130"
         style="fill:#ffffff;fill-opacity:1;fill-rule:nonzero;stroke:#000000;stroke-width:0.56;stroke-linecap:butt;stroke-linejoin:miter;stroke-miterlimit:4;stroke-opacity:1;stroke-dasharray:none"
         d="m 82.785,109.695 c 0,1.66 -1.344,3.004 -3.004,3.004 -1.66,0 -3.004,-1.344 -3.004,-3.004 0,-1.656 1.344,-3.004 3.004,-3.004 1.66,0 3.004,1.348 3.004,3.004 z"
         inkscape:connector-curvature="0" />
    </g>
    <g
       transform="matrix(1.25,0,0,1.25,180.77839,299.91222)"
       id="g132">
      <path
         id="path134"
         style="fill:#ffffff;fill-opacity:1;fill-rule:nonzero;stroke:#000000;stroke-width:0.56;stroke-linecap:butt;stroke-linejoin:miter;stroke-miterlimit:4;stroke-opacity:1;stroke-dasharray:none"
         d="m 95.211,202.02 c 0,1.66 -1.348,3.003 -3.004,3.003 -1.66,0 -3.008,-1.343 -3.008,-3.003 0,-1.661 1.348,-3.004 3.008,-3.004 1.656,0 3.004,1.343 3.004,3.004 z"
         inkscape:connector-curvature="0" />
    </g>
    <g
       transform="matrix(1.25,0,0,1.25,180.77839,299.91222)"
       id="g136">
      <path
         id="path138"
         style="fill:#ffffff;fill-opacity:1;fill-rule:nonzero;stroke:#000000;stroke-width:0.56;stroke-linecap:butt;stroke-linejoin:miter;stroke-miterlimit:4;stroke-opacity:1;stroke-dasharray:none"
         d="m 70.473,21.031 c 0,1.657 -1.348,3.004 -3.004,3.004 -1.66,0 -3.004,-1.347 -3.004,-3.004 0,-1.66 1.344,-3.008 3.004,-3.008 1.656,0 3.004,1.348 3.004,3.008 z"
         inkscape:connector-curvature="0" />
    </g>
    <path
       id="path140"
       style="fill:#000000;fill-opacity:1;fill-rule:nonzero;stroke:none"
       d="m 251.61839,304.98585 c 0.3125,0.3175 0.7375,0.3175 1.10875,0.3175 0.45875,0 1.59625,0 1.59625,-0.57125 0,-0.455 -0.7125,-0.48375 -1.455,-0.48375 -0.195,0 -0.68375,0 -1.1375,0.17125 -0.1125,-0.20125 -0.1425,-0.28875 -0.1425,-0.68375 0,-0.25875 0.0838,-0.63 0.0838,-0.66 0,-0.14125 -0.0838,-0.25375 -0.2,-0.25375 -0.3425,0 -0.3425,0.855 -0.3425,0.91375 0,0.2825 0.0588,0.625 0.2,0.88375 -1.90875,0.96625 -4.785,4.33125 -4.785,7.83625 0,2.56375 1.65125,3.135 2.96375,3.56 0.5425,0.2 0.59625,0.2 1.10875,0.37125 0.4,0.14625 1.1425,0.4 1.1425,1.255 0,0.4825 -0.34125,1.19625 -1.025,1.19625 -0.45875,0 -0.97125,-0.225 -1.3425,-0.5425 -0.1425,-0.1125 -0.1425,-0.14125 -0.225,-0.14125 -0.0875,0 -0.17125,0.0875 -0.17125,0.2 0,0.2 0.7675,0.88375 1.73875,0.88375 1.1375,0 1.9925,-1.1675 1.9925,-2.1925 0,-0.7125 -0.3425,-1.08375 -0.51375,-1.225 -0.2825,-0.3425 -0.65375,-0.46 -1.70875,-0.83 -1.455,-0.48375 -1.7375,-0.5675 -2.1975,-0.9675 -0.76625,-0.68375 -0.76625,-1.70875 -0.76625,-2.05 0,-2.8225 2.2225,-6.01625 4.0775,-6.9875 z m 0.395,-0.19625 c 0.28875,-0.14625 0.60125,-0.14625 0.855,-0.14625 0.6,0 0.65875,0.03 1.00125,0.1175 -0.1425,0.0537 -0.3425,0.14125 -1.1425,0.14125 -0.37125,0 -0.51375,0 -0.71375,-0.1125 z"
       inkscape:connector-curvature="0" />
    <path
       id="path142"
       style="fill:#000000;fill-opacity:1;fill-rule:nonzero;stroke:none"
       d="m 261.02214,319.86835 c 0,-0.0588 0,-0.0875 -0.3125,-0.4 -2.25,-2.28125 -2.85125,-5.7325 -2.85125,-8.52625 0,-3.16375 0.68375,-6.3225 2.935,-8.57875 0.22875,-0.225 0.22875,-0.25375 0.22875,-0.3125 0,-0.14125 -0.0587,-0.2 -0.17,-0.2 -0.20125,0 -1.82625,1.255 -2.90625,3.56375 -0.9125,1.9975 -1.1425,4.01875 -1.1425,5.5275 0,1.42625 0.2,3.62375 1.19625,5.70375 1.11375,2.22125 2.65125,3.4175 2.8525,3.4175 0.11125,0 0.17,-0.0538 0.17,-0.195 z"
       inkscape:connector-curvature="0" />
    <path
       id="path144"
       style="fill:#000000;fill-opacity:1;fill-rule:nonzero;stroke:none"
       d="m 262.90214,317.7296 c -0.14125,0.625 -0.2,0.7375 -0.99625,0.7375 -0.2,0 -0.4,0 -0.4,0.34625 0,0.14125 0.0825,0.225 0.23,0.225 0.4825,0 1.025,-0.0537 1.50875,-0.0537 0.625,0 1.225,0.0537 1.82625,0.0537 0.0825,0 0.3125,0 0.3125,-0.37125 0,-0.2 -0.17125,-0.2 -0.43,-0.2 -0.91375,0 -0.91375,-0.1125 -0.91375,-0.28375 0,-0.22875 0.7725,-3.1925 0.88375,-3.6475 0.23,0.5425 0.7425,1.1675 1.685,1.1675 2.11,0 4.39,-2.65125 4.39,-5.3275 0,-1.71375 -1.055,-2.91 -2.4225,-2.91 -0.9125,0 -1.79625,0.65875 -2.3975,1.3675 -0.17,-0.99625 -0.96625,-1.3675 -1.625,-1.3675 -0.855,0 -1.1975,0.7125 -1.33875,1.025 -0.34125,0.63 -0.57125,1.71375 -0.57125,1.7675 0,0.20125 0.17125,0.20125 0.2,0.20125 0.2,0 0.2,-0.03 0.3125,-0.425 0.3175,-1.285 0.68875,-2.16875 1.34375,-2.16875 0.3125,0 0.57125,0.1425 0.57125,0.82625 0,0.42875 -0.0588,0.62875 -0.1475,0.94125 l -2.02125,8.09625 z m 3.19375,-7.895 c 0.1125,-0.48375 0.625,-1.00125 0.9375,-1.285 0.65875,-0.54125 1.17125,-0.68375 1.48375,-0.68375 0.71375,0 1.1675,0.625 1.1675,1.71 0,1.08375 -0.59625,3.16375 -0.9375,3.8475 -0.63,1.28375 -1.48375,1.885 -2.1675,1.885 -1.19625,0 -1.42625,-1.51375 -1.42625,-1.62625 0,-0.03 0,-0.0587 0.0587,-0.28875 l 0.88375,-3.55875 z"
       inkscape:connector-curvature="0" />
    <path
       id="path146"
       style="fill:#000000;fill-opacity:1;fill-rule:nonzero;stroke:none"
       d="m 276.46214,310.9421 c 0,-1.39625 -0.195,-3.58875 -1.19625,-5.66875 -1.08375,-2.22125 -2.65125,-3.4225 -2.8225,-3.4225 -0.1125,0 -0.195,0.0875 -0.195,0.2 0,0.0587 0,0.0875 0.34125,0.43 1.7925,1.79625 2.8225,4.6725 2.8225,8.46125 0,3.14 -0.65875,6.32875 -2.91,8.60875 -0.25375,0.23 -0.25375,0.25875 -0.25375,0.3175 0,0.1125 0.0825,0.195 0.195,0.195 0.17125,0 1.82625,-1.25 2.88125,-3.55875 0.9425,-1.9975 1.1375,-4.01875 1.1375,-5.5625 z"
       inkscape:connector-curvature="0" />
    <path
       id="path148"
       style="fill:#000000;fill-opacity:1;fill-rule:nonzero;stroke:none"
       d="m 318.37089,423.7946 c 2.22625,0 5.87875,1.245 6.235,6.69875 0.0937,0.23 0.3575,0.38625 0.625,0.38625 0.71375,0 0.71375,-0.38625 0.71375,-0.93375 0,-4.90625 -2.94,-9.50125 -7.12875,-9.50125 l -13.0125,0 c -2.2275,0 -4.01,0 -5.885,-2.02625 -1.68875,-1.70875 -1.78125,-3.57875 -1.78125,-4.6725 -0.0888,-0.30875 -0.35625,-0.465 -0.62,-0.465 -0.625,0 -0.625,0.3125 -0.71375,0.7775 -0.18,3.27125 -2.23125,5.6875 -4.99,6.23 -0.625,0.15625 -0.805,0.15625 -2.85625,0.15625 l -11.22625,0 c -2.40625,0 -4.18875,0 -6.3275,2.33875 -1.69375,1.94375 -2.4075,5.215 -2.4075,7.1625 0,0.5475 0,0.93375 0.71375,0.93375 0.53125,0 0.53125,-0.23 0.625,-0.7775 0.175,-3.115 2.05,-5.53125 4.90125,-6.23 0.5325,-0.0775 0.62,-0.0775 2.67125,-0.0775 l 11.94375,0 c 2.5825,0 3.56375,-0.46875 5.43375,-2.0275 1.1625,-1.01 1.695,-2.49 2.2325,-3.89125 1.245,4.12625 3.92,5.91875 7.21625,5.91875 l 13.6375,0 z"
       inkscape:connector-curvature="0" />
    <g
       transform="matrix(1.25,0,0,1.25,180.77839,299.91222)"
       id="g150">
      <path
         id="path152"
         style="fill:none;stroke:#000000;stroke-width:0.80000001;stroke-linecap:butt;stroke-linejoin:miter;stroke-miterlimit:4;stroke-opacity:1;stroke-dasharray:none"
         d="m 190.938,164.941 -9.543,-22.269"
         inkscape:connector-curvature="0" />
    </g>
    <g
       transform="matrix(1.25,-0.52931375,0.52931375,1.25,180.77839,299.91222)"
       id="g154">
      <path
         id="path156"
         style="fill:none;stroke:#000000;stroke-width:0.73667502;stroke-linecap:butt;stroke-linejoin:miter;stroke-miterlimit:4;stroke-opacity:1;stroke-dasharray:none"
         d="m 99.076,194.012 3.641,-8.192"
         inkscape:connector-curvature="0" />
    </g>
    <g
       transform="matrix(1.25,-0.52931375,0.52931375,1.25,180.77839,299.91222)"
       id="g158">
      <path
         id="path160"
         style="fill:none;stroke:#000000;stroke-width:0.73667502;stroke-linecap:butt;stroke-linejoin:miter;stroke-miterlimit:4;stroke-opacity:1;stroke-dasharray:none"
         d="m 106.296,194.148 -3.64,-8.194"
         inkscape:connector-curvature="0" />
    </g>
    <g
       transform="matrix(1.25,0,0,1.25,180.77839,299.91222)"
       id="g162">
      <path
         id="path164"
         style="fill:none;stroke:#000000;stroke-width:0.80000001;stroke-linecap:butt;stroke-linejoin:miter;stroke-miterlimit:4;stroke-opacity:1;stroke-dasharray:none"
         d="M 92.758,109.695 20.359,52.348"
         inkscape:connector-curvature="0" />
    </g>
    <path
       id="path166"
       style="fill:#000000;fill-opacity:1;fill-rule:nonzero;stroke:none"
       d="m 233.20964,396.12835 c 0.1175,-0.425 0.17125,-0.59625 0.5125,-0.655 0.17125,-0.0288 0.7425,-0.0288 1.11375,-0.0288 1.28375,0 3.30625,0 3.30625,1.79625 0,0.625 -0.28375,1.88 -0.99625,2.59375 -0.48375,0.45375 -1.42625,1.05375 -3.08125,1.05375 l -2.02125,0 1.16625,-4.76 z m 2.6225,4.99 c 1.855,-0.4 3.99375,-1.685 3.99375,-3.50625 0,-1.5675 -1.625,-2.73875 -4.0225,-2.73875 l -5.15625,0 c -0.37125,0 -0.5425,0 -0.5425,0.37125 0,0.2 0.17125,0.2 0.5125,0.2 0.03,0 0.37125,0 0.68375,0.0288 0.34125,0.0588 0.48375,0.0588 0.48375,0.3125 0,0.0588 0,0.1125 -0.0538,0.3425 l -2.45125,9.75125 c -0.17125,0.7075 -0.2,0.85375 -1.655,0.85375 -0.3125,0 -0.48375,0 -0.48375,0.37125 0,0.195 0.22875,0.195 0.25375,0.195 0.5175,0 1.79625,-0.0537 2.28,-0.0537 0.5175,0 1.82625,0.0537 2.33875,0.0537 0.1425,0 0.3425,0 0.3425,-0.36625 0,-0.2 -0.1425,-0.2 -0.5125,-0.2 -0.655,0 -1.1675,0 -1.1675,-0.3175 0,-0.1125 0.0288,-0.195 0.0537,-0.3125 l 1.20125,-4.81375 2.1625,0 c 1.65625,0 1.96875,1.025 1.96875,1.65 0,0.25875 -0.1425,0.83 -0.25875,1.255 -0.1125,0.5125 -0.28375,1.16625 -0.28375,1.5375 0,1.96875 2.1975,1.96875 2.42125,1.96875 1.54375,0 2.1975,-1.82125 2.1975,-2.08 0,-0.23 -0.2,-0.23 -0.22875,-0.23 -0.17125,0 -0.2,0.1175 -0.23,0.25875 -0.45375,1.3375 -1.25,1.65 -1.65,1.65 -0.60125,0 -0.7425,-0.395 -0.7425,-1.1075 0,-0.57125 0.1125,-1.485 0.2,-2.08125 0.03,-0.25875 0.0588,-0.6 0.0588,-0.85375 0,-1.40125 -1.225,-1.9675 -1.71375,-2.13875 z"
       inkscape:connector-curvature="0" />
    <g
       transform="matrix(1.25,0,0,1.25,180.77839,299.91222)"
       id="g168">
      <path
         id="path170"
         style="fill:#ffffff;fill-opacity:1;fill-rule:nonzero;stroke:#000000;stroke-width:0.56;stroke-linecap:butt;stroke-linejoin:miter;stroke-miterlimit:4;stroke-opacity:1;stroke-dasharray:none"
         d="m 95.762,109.695 c 0,1.66 -1.348,3.004 -3.004,3.004 -1.66,0 -3.004,-1.344 -3.004,-3.004 0,-1.656 1.344,-3.004 3.004,-3.004 1.656,0 3.004,1.348 3.004,3.004 z"
         inkscape:connector-curvature="0" />
    </g>
    <g
       transform="matrix(-1.25,0,0,-1.25,180.77839,299.91222)"
       id="g172">
      <path
         id="path174"
         style="fill:none;stroke:#000000;stroke-width:0.80000001;stroke-linecap:butt;stroke-linejoin:miter;stroke-miterlimit:4;stroke-opacity:1;stroke-dasharray:none"
         d="m -102.438,-112.91 c -4.257,-14.828 -24.511,-19.074 -33.597,-21.516"
         inkscape:connector-curvature="0" />
    </g>
    <g
       transform="matrix(1.25,-0.52931375,0.52931375,1.25,180.77839,299.91222)"
       id="g176">
      <path
         id="path178"
         style="fill:none;stroke:#000000;stroke-width:0.73667502;stroke-linecap:butt;stroke-linejoin:miter;stroke-miterlimit:4;stroke-opacity:1;stroke-dasharray:none"
         d="m 42.74,140.583 3.637,-8.194"
         inkscape:connector-curvature="0" />
    </g>
    <g
       transform="matrix(1.25,-0.52931375,0.52931375,1.25,180.77839,299.91222)"
       id="g180">
      <path
         id="path182"
         style="fill:none;stroke:#000000;stroke-width:0.73667502;stroke-linecap:butt;stroke-linejoin:miter;stroke-miterlimit:4;stroke-opacity:1;stroke-dasharray:none"
         d="M 49.961,140.715 46.32,132.524"
         inkscape:connector-curvature="0" />
    </g>
    <path
       id="path184"
       style="fill:#000000;fill-opacity:1;fill-rule:nonzero;stroke:none"
       d="m 334.77214,345.61585 c 3.92625,0 10.36625,-1.245 10.99625,-6.695 0.15625,-0.23375 0.63,-0.39 1.09875,-0.39 1.26,0 1.26,0.39 1.26,0.9325 0,4.9075 -5.18625,9.50125 -12.56875,9.50125 l -22.93375,0 c -3.92625,0 -7.06625,0 -10.36625,2.02625 -2.98375,1.71375 -3.14,3.58 -3.14,4.67375 -0.15625,0.3125 -0.63,0.46375 -1.09875,0.46375 -1.10375,0 -1.10375,-0.3075 -1.26,-0.77625 -0.3125,-3.2725 -3.925,-5.68375 -8.79375,-6.23125 -1.09875,-0.15625 -1.41625,-0.15625 -5.02875,-0.15625 l -19.79,0 c -4.24375,0 -7.38375,0 -11.1525,-2.33375 -2.98375,-1.9475 -4.24375,-5.22 -4.24375,-7.1675 0,-0.5425 0,-0.9325 1.26,-0.9325 0.9425,0 0.9425,0.23375 1.09875,0.77625 0.3125,3.115 3.6125,5.5325 8.6375,6.23 0.9425,0.0788 1.09875,0.0788 4.7125,0.0788 l 21.04875,0 c 4.55625,0 6.285,0.46875 9.58,2.02625 2.04625,1.01 2.98875,2.49 3.93125,3.89125 2.1975,-4.12625 6.90875,-5.9175 12.72,-5.9175 l 24.0325,0 z"
       inkscape:connector-curvature="0" />
    <path
       id="path186"
       style="fill:#000000;fill-opacity:1;fill-rule:nonzero;stroke:none"
       d="m 286.65714,361.7971 c 0.3125,0.3125 0.7375,0.3125 1.10875,0.3125 0.45875,0 1.59625,0 1.59625,-0.57125 0,-0.45375 -0.7125,-0.48375 -1.455,-0.48375 -0.195,0 -0.68375,0 -1.1375,0.17125 -0.1125,-0.2 -0.14125,-0.28375 -0.14125,-0.68375 0,-0.25375 0.0825,-0.625 0.0825,-0.65375 0,-0.1425 -0.0825,-0.25875 -0.2,-0.25875 -0.3425,0 -0.3425,0.85375 -0.3425,0.9125 0,0.28375 0.0588,0.63 0.20125,0.88375 -1.91,0.97125 -4.785,4.33125 -4.785,7.8375 0,2.5675 1.65,3.13375 2.96375,3.56375 0.54125,0.2 0.595,0.2 1.1075,0.37125 0.40125,0.14125 1.1425,0.4 1.1425,1.255 0,0.48375 -0.34125,1.19625 -1.025,1.19625 -0.45875,0 -0.97125,-0.23 -1.3425,-0.5425 -0.14125,-0.11125 -0.14125,-0.14125 -0.225,-0.14125 -0.0875,0 -0.17125,0.0825 -0.17125,0.2 0,0.2 0.7675,0.88375 1.73875,0.88375 1.1375,0 1.9925,-1.17125 1.9925,-2.1975 0,-0.7125 -0.3425,-1.08375 -0.5125,-1.225 -0.28375,-0.34125 -0.655,-0.45375 -1.71,-0.825 -1.455,-0.48375 -1.7375,-0.57125 -2.19625,-0.9725 -0.7675,-0.6825 -0.7675,-1.70875 -0.7675,-2.05 0,-2.8225 2.2225,-6.01625 4.0775,-6.9825 z m 0.39625,-0.2 c 0.2875,-0.1425 0.6,-0.1425 0.85375,-0.1425 0.60125,0 0.65875,0.03 1.00125,0.1125 -0.14125,0.0588 -0.3425,0.1425 -1.1425,0.1425 -0.37125,0 -0.5125,0 -0.7125,-0.1125 z"
       inkscape:connector-curvature="0" />
    <path
       id="path188"
       style="fill:#000000;fill-opacity:1;fill-rule:nonzero;stroke:none"
       d="m 296.06214,376.6746 c 0,-0.0587 0,-0.0825 -0.3125,-0.4 -2.25125,-2.28 -2.8525,-5.7275 -2.8525,-8.52 0,-3.165 0.68375,-6.32875 2.935,-8.58 0.23,-0.22875 0.23,-0.25875 0.23,-0.3125 0,-0.14125 -0.0587,-0.2 -0.17125,-0.2 -0.2,0 -1.82625,1.255 -2.905,3.565 -0.91375,1.99125 -1.1425,4.01875 -1.1425,5.5275 0,1.425 0.2,3.6175 1.19625,5.6975 1.1125,2.22625 2.65125,3.4225 2.85125,3.4225 0.1125,0 0.17125,-0.0575 0.17125,-0.2 z"
       inkscape:connector-curvature="0" />
    <path
       id="path190"
       style="fill:#000000;fill-opacity:1;fill-rule:nonzero;stroke:none"
       d="m 300.02214,370.88835 c -0.17125,0.71375 -0.23,0.855 -1.65625,0.855 -0.3125,0 -0.4825,0 -0.4825,0.37125 0,0.2 0.17,0.2 0.4825,0.2 l 6.5,0 c 2.88,0 5.01875,-2.13875 5.01875,-3.935 0,-1.30875 -1.055,-2.36375 -2.8225,-2.56375 1.88,-0.3425 3.79,-1.68 3.79,-3.41875 0,-1.3425 -1.19625,-2.50875 -3.365,-2.50875 l -6.1275,0 c -0.3425,0 -0.5125,0 -0.5125,0.37 0,0.20125 0.17,0.20125 0.5125,0.20125 0.0288,0 0.37125,0 0.68375,0.0237 0.3175,0.0588 0.4875,0.0588 0.4875,0.3175 0,0.0537 -0.0288,0.1125 -0.0587,0.34125 l -2.45,9.74625 z m 2.73375,-5.24375 1.1425,-4.5025 c 0.17125,-0.62875 0.2,-0.6825 0.9675,-0.6825 l 2.3675,0 c 1.59625,0 1.9675,1.07875 1.9675,1.88 0,1.59625 -1.5675,3.305 -3.76375,3.305 l -2.68125,0 z m -0.79625,6.09875 -0.4,0 c -0.2,-0.0288 -0.25375,-0.0538 -0.25375,-0.2 0,-0.0537 0,-0.0837 0.1125,-0.39625 l 1.255,-5.0725 3.4175,0 c 1.73875,0 2.11,1.3375 2.11,2.10875 0,1.7925 -1.62125,3.56 -3.79,3.56 l -2.45125,0 z"
       inkscape:connector-curvature="0" />
    <path
       id="path192"
       style="fill:#000000;fill-opacity:1;fill-rule:nonzero;stroke:none"
       d="m 315.28964,361.4696 c 0.99625,0 1.71,0.68375 1.71,2.05625 0,1.5675 -0.9425,2.05 -1.65625,2.05 -0.5125,0 -1.65,-0.14125 -2.1625,-0.9125 0.595,0 0.7425,-0.43 0.7425,-0.7125 0,-0.40125 -0.3175,-0.68375 -0.71375,-0.68375 -0.34125,0 -0.7125,0.22875 -0.7125,0.74125 0,1.19625 1.30875,1.96875 2.84625,1.96875 1.7675,0 2.99375,-1.20125 2.99375,-2.45125 0,-1.00125 -0.79625,-1.9975 -2.1925,-2.28 1.30875,-0.48875 1.79625,-1.42625 1.79625,-2.2275 0,-0.99625 -1.1425,-1.7375 -2.5675,-1.7375 -1.39625,0 -2.48125,0.68375 -2.48125,1.70875 0,0.43 0.28875,0.65875 0.66,0.65875 0.395,0 0.65375,-0.2875 0.65375,-0.63 0,-0.37125 -0.25875,-0.65375 -0.65375,-0.68375 0.45375,-0.54125 1.30875,-0.6825 1.79125,-0.6825 0.57125,0 1.3725,0.2825 1.3725,1.36625 0,0.5425 -0.17125,1.1425 -0.5125,1.51375 -0.4,0.48375 -0.77125,0.5125 -1.39625,0.56625 -0.3175,0.03 -0.3475,0.03 -0.40125,0.03 -0.0288,0 -0.14125,0.0288 -0.14125,0.17 0,0.17125 0.1125,0.17125 0.34125,0.17125 l 0.68375,0 z"
       inkscape:connector-curvature="0" />
    <path
       id="path194"
       style="fill:#000000;fill-opacity:1;fill-rule:nonzero;stroke:none"
       d="m 325.20714,367.7546 c 0,-1.3975 -0.2,-3.59375 -1.19625,-5.675 -1.08375,-2.22125 -2.65125,-3.4175 -2.8225,-3.4175 -0.1125,0 -0.2,0.0838 -0.2,0.2 0,0.0537 0,0.0838 0.34125,0.425 1.7975,1.7975 2.8225,4.6775 2.8225,8.4675 0,3.13375 -0.65375,6.3275 -2.905,8.6075 -0.25875,0.23 -0.25875,0.25375 -0.25875,0.3125 0,0.1125 0.0875,0.2 0.2,0.2 0.17125,0 1.82625,-1.25375 2.88125,-3.56375 0.9375,-1.9925 1.1375,-4.01875 1.1375,-5.55625 z"
       inkscape:connector-curvature="0" />
    <g
       transform="matrix(1.25,0,0,1.25,180.77839,299.91222)"
       id="g196">
      <path
         id="path198"
         style="fill:#ffffff;fill-opacity:1;fill-rule:nonzero;stroke:#ffffff;stroke-width:0.53157598;stroke-linecap:butt;stroke-linejoin:miter;stroke-miterlimit:4;stroke-opacity:1;stroke-dasharray:none"
         d="m 76.676,114.453 8.902,0 0,13.023 -8.902,0 0,-13.023 z"
         inkscape:connector-curvature="0" />
    </g>
    <path
       id="path200"
       style="fill:#000000;fill-opacity:1;fill-rule:nonzero;stroke:none"
       d="m 278.23464,455.78085 c -0.14625,0.63 -0.2,0.7425 -1.00125,0.7425 -0.2,0 -0.395,0 -0.395,0.3425 0,0.14125 0.0825,0.22875 0.22375,0.22875 0.48875,0 1.02625,-0.0588 1.51375,-0.0588 0.625,0 1.22625,0.0588 1.82125,0.0588 0.0888,0 0.3125,0 0.3125,-0.37125 0,-0.2 -0.17,-0.2 -0.425,-0.2 -0.9125,0 -0.9125,-0.1125 -0.9125,-0.2825 0,-0.23 0.77125,-3.19375 0.88375,-3.6475 0.23,0.54125 0.7425,1.16625 1.68,1.16625 2.10875,0 4.39,-2.65125 4.39,-5.33125 0,-1.71 -1.055,-2.90625 -2.4225,-2.90625 -0.9125,0 -1.7925,0.655 -2.3925,1.3675 -0.17125,-0.99625 -0.97125,-1.3675 -1.62625,-1.3675 -0.85375,0 -1.19625,0.71375 -1.3375,1.02625 -0.3425,0.63 -0.57125,1.70875 -0.57125,1.7675 0,0.2 0.17125,0.2 0.2,0.2 0.2,0 0.2,-0.03 0.3125,-0.43 0.3125,-1.27875 0.68375,-2.1625 1.3425,-2.1625 0.3125,0 0.56625,0.14125 0.56625,0.825 0,0.43 -0.0537,0.625 -0.14125,0.9425 l -2.02125,8.09 z m 3.18875,-7.895 c 0.11625,-0.48375 0.63,-0.99625 0.9425,-1.27875 0.65375,-0.5425 1.16625,-0.68375 1.48375,-0.68375 0.7125,0 1.1675,0.625 1.1675,1.70875 0,1.08375 -0.60125,3.16375 -0.9425,3.8475 -0.625,1.28375 -1.48,1.88 -2.16375,1.88 -1.20125,0 -1.425,-1.50875 -1.425,-1.62125 0,-0.0288 0,-0.0588 0.0538,-0.2875 l 0.88375,-3.565 z"
       inkscape:connector-curvature="0" />
    <g
       transform="matrix(1.25,0,0,1.25,180.77839,299.91222)"
       id="g202">
      <path
         id="path204"
         style="fill:#ffffff;fill-opacity:1;fill-rule:nonzero;stroke:#ffffff;stroke-width:0.628905;stroke-linecap:butt;stroke-linejoin:miter;stroke-miterlimit:4;stroke-opacity:1;stroke-dasharray:none"
         d="m 88.285,114.512 12.551,0 0,12.926 -12.551,0 0,-12.926 z"
         inkscape:connector-curvature="0" />
    </g>
    <path
       id="path206"
       style="fill:#000000;fill-opacity:1;fill-rule:nonzero;stroke:none"
       d="m 305.10964,449.88835 c 0,-2.935 -1.93875,-4.9025 -4.64875,-4.9025 -3.90125,0 -7.925,4.13 -7.925,8.37875 0,3.0225 2.05625,4.84375 4.6775,4.84375 3.84875,0 7.89625,-3.99 7.89625,-8.32 z m -7.8125,7.83625 c -1.7925,0 -3.0475,-1.455 -3.0475,-3.8475 0,-0.825 0.25375,-3.47625 1.65125,-5.58625 1.255,-1.90875 3.0225,-2.85125 4.4775,-2.85125 1.47875,0 3.105,1.025 3.105,3.735 0,1.30875 -0.48375,4.13125 -2.28,6.3875 -0.88375,1.1075 -2.36875,2.1625 -3.90625,2.1625 z"
       inkscape:connector-curvature="0" />
    <g
       id="g4161"
       transform="translate(6.7857143,-21.428571)">
      <g
         id="g208"
         transform="matrix(-1.25,0,0,1.25,180.77839,299.91222)">
        <path
           inkscape:connector-curvature="0"
           d="M -104.723,32.988 C -108.98,18.16 -120.66657,14.342571 -133.32,22.044429"
           style="fill:none;stroke:#000000;stroke-width:0.80000001;stroke-linecap:butt;stroke-linejoin:miter;stroke-miterlimit:4;stroke-opacity:1;stroke-dasharray:none"
           id="path210"
           sodipodi:nodetypes="cc" />
      </g>
      <g
         id="g212"
         transform="matrix(1.25,0.52931375,0.52931375,-1.25,180.77839,299.91222)">
        <path
           inkscape:connector-curvature="0"
           d="m 97.065,17.688 3.641,-8.193"
           style="fill:none;stroke:#000000;stroke-width:0.73667502;stroke-linecap:butt;stroke-linejoin:miter;stroke-miterlimit:4;stroke-opacity:1;stroke-dasharray:none"
           id="path214" />
      </g>
      <g
         id="g216"
         transform="matrix(1.25,0.52931375,0.52931375,-1.25,180.77839,299.91222)">
        <path
           inkscape:connector-curvature="0"
           d="M 104.286,17.82 100.645,9.63"
           style="fill:none;stroke:#000000;stroke-width:0.73667502;stroke-linecap:butt;stroke-linejoin:miter;stroke-miterlimit:4;stroke-opacity:1;stroke-dasharray:none"
           id="path218" />
      </g>
    </g>
    <path
       id="path220"
       style="fill:#000000;fill-opacity:1;fill-rule:nonzero;stroke:none"
       d="m 366.12964,309.5271 c -0.0288,-0.0588 -0.0875,-0.20125 -0.0875,-0.26 0,0 0.3175,-0.25375 0.5125,-0.395 l 3.19375,-2.45125 c 1.70875,-1.28375 2.42125,-1.3425 2.96375,-1.39625 0.14625,-0.0288 0.3175,-0.0288 0.3175,-0.37125 0,-0.0587 -0.0587,-0.2 -0.2,-0.2 -0.40125,0 -0.855,0.0537 -1.285,0.0537 -0.65375,0 -1.36625,-0.0537 -2.02125,-0.0537 -0.1175,0 -0.34125,0 -0.34125,0.37125 0,0.1125 0.0825,0.17125 0.22375,0.2 0.40125,0.0238 0.5425,0.1125 0.5425,0.36625 0,0.34125 -0.5425,0.77125 -0.655,0.85875 l -7.07,5.44 1.455,-5.84 c 0.1425,-0.65375 0.2,-0.825 1.50875,-0.825 0.46,0 0.63,0 0.63,-0.37125 0,-0.14625 -0.14125,-0.2 -0.25875,-0.2 -0.5125,0 -1.82125,0.0537 -2.33375,0.0537 -0.5175,0 -1.79625,-0.0537 -2.33875,-0.0537 -0.1125,0 -0.37125,0 -0.37125,0.34125 0,0.23 0.17125,0.23 0.5425,0.23 0.22875,0 0.57125,0.0238 0.76625,0.0238 0.2875,0.0587 0.4,0.0887 0.4,0.3175 0,0.0537 0,0.1125 -0.0537,0.3425 l -2.45125,9.74625 c -0.175,0.7125 -0.2,0.85375 -1.655,0.85375 -0.3125,0 -0.5125,0 -0.5125,0.3425 0,0.22875 0.23,0.22875 0.28375,0.22875 0.5125,0 1.79625,-0.0587 2.30875,-0.0587 0.37125,0 0.77125,0.03 1.1675,0.03 0.4,0 0.8,0.0288 1.17125,0.0288 0.1425,0 0.37125,0 0.37125,-0.37125 0,-0.2 -0.17125,-0.2 -0.5125,-0.2 -0.68875,0 -1.1725,0 -1.1725,-0.3125 0,-0.14125 0.0888,-0.54125 0.1425,-0.8 0.25875,-0.9675 0.5125,-1.91 0.7425,-2.87625 l 2.71,-2.11 2.10875,4.9025 c 0.225,0.48375 0.225,0.5425 0.225,0.625 0,0.57125 -0.79625,0.57125 -0.9675,0.57125 -0.2,0 -0.4,0 -0.4,0.37125 0,0.2 0.23,0.2 0.25875,0.2 0.7375,0 1.50875,-0.0587 2.22125,-0.0587 0.40125,0 1.39625,0.0587 1.7975,0.0587 0.0825,0 0.3125,0 0.3125,-0.37125 0,-0.2 -0.2,-0.2 -0.37125,-0.2 -0.7425,0 -0.9675,-0.17 -1.255,-0.795 l -2.56375,-5.98625 z"
       inkscape:connector-curvature="0" />
    <path
       id="path222"
       style="fill:#000000;fill-opacity:1;fill-rule:nonzero;stroke:none"
       d="m 377.27714,304.2671 c 0.1125,-0.2 0.1125,-0.3125 0.1125,-0.395 0,-0.4 -0.34125,-0.68875 -0.7375,-0.68875 -0.4875,0 -0.63,0.40125 -0.68375,0.60125 l -1.68375,5.5025 c -0.03,0.025 -0.0838,0.17125 -0.0838,0.195 0,0.1475 0.39625,0.28875 0.5125,0.28875 0.0838,0 0.0838,-0.03 0.17125,-0.23 l 2.3925,-5.27375 z"
       inkscape:connector-curvature="0" />
    <path
       id="path224"
       style="fill:#000000;fill-opacity:1;fill-rule:nonzero;stroke:none"
       d="m 396.23214,310.92335 c 0.28375,0 0.625,0 0.625,-0.3425 0,-0.37125 -0.34125,-0.37125 -0.595,-0.37125 l -10.88875,0 c -0.25875,0 -0.60125,0 -0.60125,0.37125 0,0.3425 0.3425,0.3425 0.60125,0.3425 l 10.85875,0 z m 0.03,3.535 c 0.25375,0 0.595,0 0.595,-0.37125 0,-0.34125 -0.34125,-0.34125 -0.625,-0.34125 l -10.85875,0 c -0.25875,0 -0.60125,0 -0.60125,0.34125 0,0.37125 0.3425,0.37125 0.60125,0.37125 l 10.88875,0 z"
       inkscape:connector-curvature="0" />
    <path
       id="path226"
       style="fill:#000000;fill-opacity:1;fill-rule:nonzero;stroke:none"
       d="m 408.82964,306.3621 c 0.3175,0.3125 0.7425,0.3125 1.11375,0.3125 0.45375,0 1.59625,0 1.59625,-0.57125 0,-0.45375 -0.7125,-0.4825 -1.455,-0.4825 -0.2,0 -0.68375,0 -1.1375,0.17 -0.1175,-0.2 -0.14625,-0.2825 -0.14625,-0.68375 0,-0.25875 0.0875,-0.625 0.0875,-0.65375 0,-0.14125 -0.0875,-0.25875 -0.2,-0.25875 -0.34125,0 -0.34125,0.85375 -0.34125,0.9125 0,0.28375 0.0587,0.625 0.2,0.88375 -1.90875,0.9675 -4.79,4.33125 -4.79,7.8375 0,2.56875 1.655,3.135 2.96375,3.56375 0.5425,0.20125 0.6,0.20125 1.11375,0.37125 0.4,0.1425 1.1425,0.40125 1.1425,1.255 0,0.48375 -0.3475,1.19625 -1.03125,1.19625 -0.45375,0 -0.96625,-0.22875 -1.3375,-0.54125 -0.14125,-0.1125 -0.14125,-0.1425 -0.23,-0.1425 -0.0825,0 -0.17,0.0838 -0.17,0.20125 0,0.195 0.77125,0.88375 1.7375,0.88375 1.1425,0 1.9975,-1.1725 1.9975,-2.1975 0,-0.71375 -0.34125,-1.08375 -0.5125,-1.22625 -0.28375,-0.34125 -0.655,-0.45375 -1.70875,-0.825 -1.455,-0.48375 -1.73875,-0.57125 -2.1975,-0.97125 -0.76625,-0.68375 -0.76625,-1.70875 -0.76625,-2.05125 0,-2.8225 2.22125,-6.015 4.07125,-6.9825 z m 0.40125,-0.2 c 0.2825,-0.14125 0.6,-0.14125 0.85375,-0.14125 0.60125,0 0.655,0.0288 0.99625,0.1125 -0.14125,0.0587 -0.34125,0.14125 -1.1375,0.14125 -0.37125,0 -0.5125,0 -0.7125,-0.1125 z"
       inkscape:connector-curvature="0" />
    <path
       id="path228"
       style="fill:#000000;fill-opacity:1;fill-rule:nonzero;stroke:none"
       d="m 418.23464,321.24085 c 0,-0.0588 0,-0.0888 -0.3125,-0.40125 -2.25125,-2.28 -2.85125,-5.7275 -2.85125,-8.52 0,-3.16375 0.6875,-6.32875 2.93875,-8.57875 0.225,-0.23 0.225,-0.25875 0.225,-0.3125 0,-0.1475 -0.0538,-0.20125 -0.17125,-0.20125 -0.2,0 -1.82125,1.255 -2.905,3.56 -0.91375,1.9975 -1.1425,4.01875 -1.1425,5.5325 0,1.42625 0.2,3.6175 1.20125,5.6975 1.10875,2.2275 2.64625,3.42375 2.84625,3.42375 0.1175,0 0.17125,-0.0588 0.17125,-0.2 z"
       inkscape:connector-curvature="0" />
    <path
       id="path230"
       style="fill:#000000;fill-opacity:1;fill-rule:nonzero;stroke:none"
       d="m 428.55214,309.5271 c -0.025,-0.0588 -0.0838,-0.20125 -0.0838,-0.26 0,0 0.3125,-0.25375 0.5125,-0.395 l 3.19375,-2.45125 c 1.70875,-1.28375 2.4225,-1.3425 2.96375,-1.39625 0.1425,-0.0288 0.3125,-0.0288 0.3125,-0.37125 0,-0.0587 -0.0588,-0.2 -0.2,-0.2 -0.395,0 -0.85375,0.0537 -1.27875,0.0537 -0.66,0 -1.3725,-0.0537 -2.02625,-0.0537 -0.1125,0 -0.3425,0 -0.3425,0.37125 0,0.1125 0.0875,0.17125 0.23,0.2 0.395,0.0238 0.54125,0.1125 0.54125,0.36625 0,0.34125 -0.54125,0.77125 -0.65875,0.85875 l -7.065,5.44 1.45,-5.84 c 0.14625,-0.65375 0.2,-0.825 1.51375,-0.825 0.45375,0 0.625,0 0.625,-0.37125 0,-0.14625 -0.1425,-0.2 -0.25375,-0.2 -0.51375,0 -1.82625,0.0537 -2.33875,0.0537 -0.51375,0 -1.7975,-0.0537 -2.34,-0.0537 -0.11125,0 -0.36625,0 -0.36625,0.34125 0,0.23 0.17125,0.23 0.5375,0.23 0.23,0 0.57125,0.0238 0.77125,0.0238 0.28375,0.0587 0.40125,0.0887 0.40125,0.3175 0,0.0537 0,0.1125 -0.0588,0.3425 l -2.45125,9.74625 c -0.17125,0.7125 -0.2,0.85375 -1.65,0.85375 -0.3175,0 -0.51875,0 -0.51875,0.3425 0,0.22875 0.23,0.22875 0.28875,0.22875 0.5125,0 1.79625,-0.0587 2.31,-0.0587 0.37,0 0.76625,0.03 1.16625,0.03 0.40125,0 0.79625,0.0288 1.1675,0.0288 0.14125,0 0.37125,0 0.37125,-0.37125 0,-0.2 -0.17125,-0.2 -0.5125,-0.2 -0.68375,0 -1.1675,0 -1.1675,-0.3125 0,-0.14125 0.0825,-0.54125 0.14125,-0.8 0.25375,-0.9675 0.5125,-1.91 0.7425,-2.87625 l 2.705,-2.11 2.10875,4.9025 c 0.23,0.48375 0.23,0.5425 0.23,0.625 0,0.57125 -0.80125,0.57125 -0.97125,0.57125 -0.19625,0 -0.39625,0 -0.39625,0.37125 0,0.2 0.225,0.2 0.25375,0.2 0.7425,0 1.51375,-0.0587 2.2275,-0.0587 0.395,0 1.39625,0.0587 1.79125,0.0587 0.0888,0 0.3175,0 0.3175,-0.37125 0,-0.2 -0.2,-0.2 -0.37125,-0.2 -0.74125,0 -0.97125,-0.17 -1.255,-0.795 l -2.5675,-5.98625 z"
       inkscape:connector-curvature="0" />
    <path
       id="path232"
       style="fill:#000000;fill-opacity:1;fill-rule:nonzero;stroke:none"
       d="m 441.27214,312.3196 c 0,-1.39625 -0.20125,-3.59375 -1.19625,-5.67375 -1.085,-2.2225 -2.6525,-3.41875 -2.8225,-3.41875 -0.1175,0 -0.2,0.0838 -0.2,0.20125 0,0.0537 0,0.0825 0.34125,0.42375 1.79625,1.7975 2.8225,4.67375 2.8225,8.4675 0,3.135 -0.66,6.3275 -2.91,8.60875 -0.25375,0.22375 -0.25375,0.25375 -0.25375,0.3125 0,0.11125 0.0825,0.2 0.2,0.2 0.17,0 1.82125,-1.255 2.875,-3.565 0.9425,-1.9925 1.14375,-4.01875 1.14375,-5.55625 z"
       inkscape:connector-curvature="0" />
    <path
       id="path234"
       style="fill:#000000;fill-opacity:1;fill-rule:nonzero;stroke:none"
       d="m 460.10964,307.78835 c 0.3175,0 0.65875,0 0.65875,-0.37125 0,-0.37125 -0.34125,-0.37125 -0.65875,-0.37125 l -4.87375,0 c -3.105,0 -5.585,2.36375 -5.585,5.27375 0,2.935 2.48,5.3025 5.585,5.3025 l 4.87375,0 c 0.3175,0 0.65875,0 0.65875,-0.37125 0,-0.37125 -0.34125,-0.37125 -0.65875,-0.37125 l -4.84375,0 c -2.8225,0 -4.9025,-2.10875 -4.9025,-4.56 0,-2.4225 2.08,-4.53125 4.9025,-4.53125 l 4.84375,0 z"
       inkscape:connector-curvature="0" />
    <path
       id="path236"
       style="fill:#000000;fill-opacity:1;fill-rule:nonzero;stroke:none"
       d="m 473.22464,306.3621 c 0.3125,0.3125 0.7375,0.3125 1.10875,0.3125 0.45875,0 1.59625,0 1.59625,-0.57125 0,-0.45375 -0.7125,-0.4825 -1.455,-0.4825 -0.195,0 -0.68375,0 -1.1375,0.17 -0.1125,-0.2 -0.14125,-0.2825 -0.14125,-0.68375 0,-0.25875 0.0825,-0.625 0.0825,-0.65375 0,-0.14125 -0.0825,-0.25875 -0.2,-0.25875 -0.3425,0 -0.3425,0.85375 -0.3425,0.9125 0,0.28375 0.0588,0.625 0.20125,0.88375 -1.91,0.9675 -4.78625,4.33125 -4.78625,7.8375 0,2.56875 1.65125,3.135 2.965,3.56375 0.54125,0.20125 0.595,0.20125 1.1075,0.37125 0.40125,0.1425 1.1425,0.40125 1.1425,1.255 0,0.48375 -0.34125,1.19625 -1.025,1.19625 -0.45875,0 -0.97125,-0.22875 -1.3425,-0.54125 -0.1425,-0.1125 -0.1425,-0.1425 -0.225,-0.1425 -0.0875,0 -0.17125,0.0838 -0.17125,0.20125 0,0.195 0.7675,0.88375 1.73875,0.88375 1.1375,0 1.9925,-1.1725 1.9925,-2.1975 0,-0.71375 -0.3425,-1.08375 -0.5125,-1.22625 -0.28375,-0.34125 -0.655,-0.45375 -1.71,-0.825 -1.455,-0.48375 -1.7375,-0.57125 -2.19625,-0.97125 -0.7675,-0.68375 -0.7675,-1.70875 -0.7675,-2.05125 0,-2.8225 2.2225,-6.015 4.0775,-6.9825 z m 0.395,-0.2 c 0.28875,-0.14125 0.60125,-0.14125 0.855,-0.14125 0.60125,0 0.65875,0.0288 1.00125,0.1125 -0.14125,0.0587 -0.3425,0.14125 -1.1425,0.14125 -0.37125,0 -0.5125,0 -0.71375,-0.1125 z"
       inkscape:connector-curvature="0" />
    <path
       id="path238"
       style="fill:#000000;fill-opacity:1;fill-rule:nonzero;stroke:none"
       d="m 482.62839,321.24085 c 0,-0.0588 0,-0.0888 -0.3125,-0.40125 -2.25,-2.28 -2.85125,-5.7275 -2.85125,-8.52 0,-3.16375 0.68375,-6.32875 2.935,-8.57875 0.22875,-0.23 0.22875,-0.25875 0.22875,-0.3125 0,-0.1475 -0.0575,-0.20125 -0.17,-0.20125 -0.2,0 -1.82625,1.255 -2.905,3.56 -0.91375,1.9975 -1.14375,4.01875 -1.14375,5.5325 0,1.42625 0.20125,3.6175 1.19625,5.6975 1.11375,2.2275 2.6525,3.42375 2.8525,3.42375 0.1125,0 0.17,-0.0588 0.17,-0.2 z"
       inkscape:connector-curvature="0" />
    <path
       id="path240"
       style="fill:#000000;fill-opacity:1;fill-rule:nonzero;stroke:none"
       d="m 486.58839,315.4546 c -0.17,0.7125 -0.22875,0.85375 -1.655,0.85375 -0.3125,0 -0.4825,0 -0.4825,0.37125 0,0.2 0.17,0.2 0.4825,0.2 l 6.49875,0 c 2.88125,0 5.02,-2.13875 5.02,-3.935 0,-1.30875 -1.055,-2.36375 -2.8225,-2.56375 1.88,-0.34125 3.78875,-1.68 3.78875,-3.4225 0,-1.3375 -1.19625,-2.505 -3.36375,-2.505 l -6.1275,0 c -0.3425,0 -0.5125,0 -0.5125,0.37125 0,0.2 0.17,0.2 0.5125,0.2 0.0288,0 0.37125,0 0.68375,0.0238 0.3175,0.0587 0.4875,0.0587 0.4875,0.3175 0,0.0537 -0.0288,0.1125 -0.0587,0.3425 l -2.45125,9.74625 z m 2.735,-5.245 1.1425,-4.50125 c 0.17125,-0.63 0.2,-0.68375 0.96625,-0.68375 l 2.36875,0 c 1.59625,0 1.9675,1.07875 1.9675,1.88 0,1.59625 -1.5675,3.305 -3.765,3.305 l -2.68,0 z m -0.79625,6.09875 -0.4,0 c -0.2,-0.0288 -0.25375,-0.0588 -0.25375,-0.2 0,-0.0537 0,-0.0825 0.1125,-0.4 l 1.255,-5.07375 3.4175,0 c 1.73875,0 2.10875,1.3425 2.10875,2.11 0,1.79625 -1.62,3.56375 -3.78875,3.56375 l -2.45125,0 z"
       inkscape:connector-curvature="0" />
    <path
       id="path242"
       style="fill:#000000;fill-opacity:1;fill-rule:nonzero;stroke:none"
       d="m 501.85714,306.03585 c 0.99625,0 1.70875,0.6825 1.70875,2.05 0,1.5725 -0.94125,2.05625 -1.655,2.05625 -0.5125,0 -1.65,-0.1425 -2.1625,-0.91375 0.595,0 0.7425,-0.43 0.7425,-0.7125 0,-0.4 -0.3175,-0.68375 -0.71375,-0.68375 -0.34125,0 -0.7125,0.23 -0.7125,0.7425 0,1.19625 1.30875,1.9625 2.84625,1.9625 1.7675,0 2.99375,-1.19625 2.99375,-2.45125 0,-0.99625 -0.79625,-1.9925 -2.1925,-2.28 1.30875,-0.48375 1.79625,-1.42125 1.79625,-2.22125 0,-0.99625 -1.1425,-1.73875 -2.5675,-1.73875 -1.3975,0 -2.48125,0.68375 -2.48125,1.70875 0,0.43 0.28875,0.66 0.66,0.66 0.395,0 0.65375,-0.28875 0.65375,-0.63 0,-0.37125 -0.25875,-0.655 -0.65375,-0.68375 0.45375,-0.5425 1.30875,-0.68375 1.79125,-0.68375 0.57125,0 1.3725,0.2825 1.3725,1.3675 0,0.54125 -0.17125,1.1425 -0.5125,1.51375 -0.40125,0.4825 -0.77125,0.5125 -1.39625,0.56625 -0.3175,0.0288 -0.3475,0.0288 -0.40125,0.0288 -0.0288,0 -0.14125,0.03 -0.14125,0.17125 0,0.17125 0.1125,0.17125 0.34125,0.17125 l 0.68375,0 z"
       inkscape:connector-curvature="0" />
    <path
       id="path244"
       style="fill:#000000;fill-opacity:1;fill-rule:nonzero;stroke:none"
       d="m 511.77464,312.3196 c 0,-1.39625 -0.2,-3.59375 -1.19625,-5.67375 -1.08375,-2.2225 -2.65125,-3.41875 -2.8225,-3.41875 -0.1125,0 -0.2,0.0838 -0.2,0.20125 0,0.0537 0,0.0825 0.34125,0.42375 1.7975,1.7975 2.8225,4.67375 2.8225,8.4675 0,3.135 -0.65375,6.3275 -2.905,8.60875 -0.25875,0.22375 -0.25875,0.25375 -0.25875,0.3125 0,0.11125 0.0875,0.2 0.2,0.2 0.17125,0 1.82625,-1.255 2.88125,-3.565 0.9375,-1.9925 1.1375,-4.01875 1.1375,-5.55625 z"
       inkscape:connector-curvature="0" />
  </g>
</svg>
