<?xml version="1.0" encoding="UTF-8" standalone="no"?>
<!-- Created with Inkscape (http://www.inkscape.org/) -->

<svg
   xmlns:dc="http://purl.org/dc/elements/1.1/"
   xmlns:cc="http://creativecommons.org/ns#"
   xmlns:rdf="http://www.w3.org/1999/02/22-rdf-syntax-ns#"
   xmlns:svg="http://www.w3.org/2000/svg"
   xmlns="http://www.w3.org/2000/svg"
   xmlns:sodipodi="http://sodipodi.sourceforge.net/DTD/sodipodi-0.dtd"
   xmlns:inkscape="http://www.inkscape.org/namespaces/inkscape"
   width="744.09448819"
   height="1052.3622047"
   id="svg3037"
   version="1.1"
   inkscape:version="0.48.3.1 r9886"
   sodipodi:docname="whitneytrickproof.svg">
  <defs
     id="defs3039" />
  <sodipodi:namedview
     id="base"
     pagecolor="#ffffff"
     bordercolor="#666666"
     borderopacity="1.0"
     inkscape:pageopacity="0.0"
     inkscape:pageshadow="2"
     inkscape:zoom="0.6173439"
     inkscape:cx="453.87617"
     inkscape:cy="469.6521"
     inkscape:document-units="px"
     inkscape:current-layer="layer1"
     showgrid="false"
     inkscape:window-width="950"
     inkscape:window-height="639"
     inkscape:window-x="209"
     inkscape:window-y="244"
     inkscape:window-maximized="0" />
  <metadata
     id="metadata3042">
    <rdf:RDF>
      <cc:Work
         rdf:about="">
        <dc:format>image/svg+xml</dc:format>
        <dc:type
           rdf:resource="http://purl.org/dc/dcmitype/StillImage" />
      </cc:Work>
    </rdf:RDF>
  </metadata>
  <g
     inkscape:label="Layer 1"
     inkscape:groupmode="layer"
     id="layer1">
    <path
       id="path16"
       style="fill:none;stroke:#231f20;stroke-width:3;stroke-linecap:butt;stroke-linejoin:miter;stroke-miterlimit:2.61310005;stroke-opacity:1;stroke-dasharray:none"
       d="m 593.09083,449.15182 c -9.23832,0.42962 -25.58344,-10.41213 -41.10494,-10.92388 -15.521,-0.51175 -20.39112,23.0625 -15.78125,24.02388 5.92775,1.23687 8.9785,-10.5 16.21238,-10.88075 7.23387,-0.38138 9.458,14.98487 6.24699,22.03612 -4.0405,8.875 -25.51999,14.57463 -28.00087,15.57663 -9.79838,3.9555 -13.90975,17.20412 -7.57138,23.60205"
       inkscape:connector-curvature="0" />
    <path
       id="path18"
       style="fill:none;stroke:#231f20;stroke-width:3;stroke-linecap:butt;stroke-linejoin:miter;stroke-miterlimit:2.61310005;stroke-opacity:1;stroke-dasharray:none"
       d="m 257.74864,452.82507 c -9.23875,0.42975 -9.9012,2.021 -25.1537,8.4846 -20.05471,12.13148 -20.92743,28.95651 -9.66505,27.6624 6.17375,-0.70113 13.76125,-7.06217 14.99125,-17.09342 0.1825,-1.48337 0.155,-7.50083 -0.0525,-8.72733 m -4.06625,-6.94625 c -3.53125,-3.7315 -8.4325,-4.87313 -14.1425,-7.13975 m 0,0 c -5.435,-2.15675 -10.66375,-4.43313 -13.4125,-8.32025 -7.54625,-10.67288 1.28125,-15.6475 9.80875,-13.01513 4.1075,1.267 17.1165,10.49878 14.08525,19.7429 m -4.35275,7.47823 c -0.625,0.90925 -0.30875,0.3945 -1.33125,1.167 -8.355,6.30962 -34.98875,39.125 -46.58625,49.68162"
       inkscape:connector-curvature="0"
       sodipodi:nodetypes="cccccccccccccc" />
    <path
       id="path20"
       style="fill:none;stroke:#231f20;stroke-width:3;stroke-linecap:butt;stroke-linejoin:miter;stroke-miterlimit:2.61310005;stroke-opacity:1;stroke-dasharray:none"
       d="m 330.08489,456.29832 c -3.60625,1.79637 -7.62875,3.78412 -16.665,3.48625 -7.67,-0.25188 -15.99125,2.64262 -20.74,6.937 m 0.51821,21.48537 c -5.63125,2.45988 -15.48071,5.02938 -16.71821,5.26225 -7.42875,1.39788 -12.7475,8.48775 -6.40875,14.88572 m 28.45125,-59.40722 c -4.57375,-1.90525 -8.7575,-4.05562 -11.11625,-7.39062 -7.54625,-10.67288 1.28,-15.6475 9.80875,-13.01563 3.46375,1.06938 5.81625,8.30913 7.185,16.978 m -11.72,21.20213 c -1.8575,1.68125 -3.17,3.57625 -3.68,5.58062 -0.84625,3.32563 8.91625,18.18263 15.08875,17.48188 6.1725,-0.70113 13.76125,-11.73525 14.99125,-21.767 0.3475,-2.835 0.55875,-3.60363 -0.41625,-5.565 m -1.2422,-7.0233 c -3.8975,-4.59863 -12.27405,-3.72133 -18.89905,-6.48108 m 40.38375,4.68988 c -3.85875,0.17975 -6.2325,1.37012 -8.82125,2.66075 m -24.64875,-1.90925 c 0.1875,2.06012 0.1475,1.40037 0.23875,3.4165 m 0.1875,9.15925 c 0.185,7.38975 -0.32375,8.603 -1.38125,10.92812 -1.1075,2.43263 -2.10125,3.7085 -5.06375,5.7735"
       inkscape:connector-curvature="0"
       sodipodi:nodetypes="ccccsccccccccccccccccccc" />
    <path
       id="path22"
       style="fill:none;stroke:#231f20;stroke-width:3;stroke-linecap:butt;stroke-linejoin:miter;stroke-miterlimit:2.61310005;stroke-opacity:1;stroke-dasharray:none"
       d="m 483.64989,443.23132 c -4.65875,-1.46288 -9.46375,-2.57763 -14.1925,-2.73338 -5.4575,-0.17962 -9.5975,2.61725 -12.47125,6.36188 m 53.57537,4.561 c -6.42287,0.29937 -16.28225,-4.85113 -26.91162,-8.1895 m -26.66375,3.6285 c -5.3025,6.90725 -6.29875,17.0385 -3.31,17.66212 4.07375,0.84963 10.513,0.62523 11.87175,-6.2214 1.36,-6.84662 1.23655,-7.5046 0.83025,-12.52022 m -3.8337,-9.785 c -0.52375,-7.4355 1.7779,-9.55988 6.3254,-9.66925 4.5475,-0.10938 7.8132,1.79202 9.17945,9.7384 m -0.11655,11.94776 c 1.84375,12.833 -0.004,23.72646 -1.79665,27.66496 -4.04,8.874 -25.5975,14.45113 -28.00125,15.57613 -12.97375,6.07087 -17.97875,14.29887 -11.64,20.6968"
       inkscape:connector-curvature="0"
       sodipodi:nodetypes="ccccccccccsccccc" />
    <path
       id="path24"
       style="fill:none;stroke:#231f20;stroke-width:3;stroke-linecap:butt;stroke-linejoin:miter;stroke-miterlimit:2.61310005;stroke-opacity:1;stroke-dasharray:none"
       d="m 378.77114,486.68794 c -7.2075,3.88713 -15.33,5.7275 -16.93875,5.96825 -10.27625,1.53763 -15.2725,8.83838 -12.80125,17.21044 m 46.9925,-65.63769 c -4.2425,-1.25975 -8.5875,-2.1875 -12.86875,-2.32812 -6.295,-0.2075 -10.8375,3.54687 -13.7075,8.14837 m 54.8125,2.7745 c -6.68875,0.3115 -17.105,-5.28712 -28.23625,-8.59475 m -26.57625,5.82025 c -1.99375,3.19775 -1.7139,8.89918 1.2347,17.10502 -0.44625,3.2915 13.31099,22.68255 18.75905,21.81686 5.65875,-0.65625 13.76125,-11.73525 14.99125,-21.7665 1.83625,-14.97413 -14.09557,-11.7671 -24.22182,-18.70998 m -7.45068,-7.75002 c -4.0475,-5.72263 1.28,-15.648 9.8075,-13.01563 3.04,0.938 4.9625,3.04137 6.37625,10.27862 m 0.82625,6.81026 c 0.2025,1.2075 0.22125,1.44037 0.38625,2.69775 m 0,0 0,5e-4 m 0.64,9.50347 c 0.8175,10.26312 0.43625,16.98728 -0.9625,20.06053 -1.0575,2.32312 -2.22875,3.73775 -5.00875,5.73087"
       inkscape:connector-curvature="0"
       sodipodi:nodetypes="ccccccccccccccccccccccc" />
  </g>
</svg>
